<svg xmlns="http://www.w3.org/2000/svg" width="96.5" height="56.466" viewBox="0 0 96.5 56.466">
  <g id="Group_606" data-name="Group 606" transform="translate(-47.3 -77.3)">
    <path id="Path_1597" data-name="Path 1597" d="M143.737,111.778v-3.109L83.971,92.3,47.3,104.418v3.172L83.971,95.409Z" transform="translate(0 -5.483)" fill="#919421"/>
    <path id="Path_1598" data-name="Path 1598" d="M143.737,100.521V93.542L83.971,77.3,47.3,89.355v6.979L83.971,84.216Z" fill="#736553"/>
    <g id="Group_603" data-name="Group 603" transform="translate(58.657 109.594)">
      <path id="Path_1599" data-name="Path 1599" d="M73.194,129.152,69.7,128.2l-4.5,11.357,2.855.761.825-2.03,4.885,1.332.761,2.474,3.172.888Zm-3.109,6.535,1.4-3.807,1.332,4.568Z" transform="translate(-65.2 -128.2)" fill="#bbbe09"/>
      <path id="Path_1600" data-name="Path 1600" d="M90.334,133.215l2.474,4.314,2.6-2.918,3.489.952-4.378,4.949,4.314,7.677-3.616-1.015-2.6-4.568-2.728,3.109-3.489-.952,4.5-5.076L86.654,132.2Z" transform="translate(-72.95 -129.662)" fill="#bbbe09"/>
      <path id="Path_1601" data-name="Path 1601" d="M111.492,151.587l-2.792-.761V138.2l2.792.761Z" transform="translate(-81.101 -131.855)" fill="#bbbe09"/>
      <path id="Path_1602" data-name="Path 1602" d="M128.118,153.737v-9.517L120.06,142s-.381,5.393-.634,7.106-.952,2.157-2.347,1.9c-.381-.063-.7-.127-1.079-.19v2.665l14.339,3.934v-3.045Zm-2.792-.761L121.52,151.9l.761-6.218,3.109.825v6.471Z" transform="translate(-83.77 -133.245)" fill="#bbbe09"/>
    </g>
    <path id="Path_1603" data-name="Path 1603" d="M47.3,111.4v3.172l59.765,16.305,36.671-12.118v-3.109l-36.671,12.118Z" transform="translate(0 -12.465)" fill="#bbbe09"/>
    <g id="Group_604" data-name="Group 604" transform="translate(47.3 89.355)">
      <path id="Path_1604" data-name="Path 1604" d="M107.065,119.584,47.3,103.279V96.3l59.765,16.305,36.671-12.118v6.979Z" transform="translate(-47.3 -96.3)" fill="#a08e78"/>
    </g>
    <path id="Path_1605" data-name="Path 1605" d="M58.149,133.772a3.711,3.711,0,0,0-1.65-3.68l-.127-.063.127-.063a3.135,3.135,0,0,0,1.332-1.079,3.493,3.493,0,0,0,.19-2.6,3.6,3.6,0,0,0-1.84-2.221,11.009,11.009,0,0,0-2.792-1.015L47.3,121.4v2.982c.317.063,5.837,1.523,5.837,1.523a2.026,2.026,0,0,1,1.523.825.957.957,0,0,1-.063,1.015c-.127.254-.444.317-.825.317h-.254c-.317-.063-.7-.127-1.015-.19-.761-.19-3.172-.825-3.172-.825v2.538s3.616,1.015,4.124,1.142a1.683,1.683,0,0,1,1.142.7,1.428,1.428,0,0,1,0,1.142.943.943,0,0,1-.825.381h-.127a7.476,7.476,0,0,1-1.205-.254l-5.076-1.332v2.792s4.822,1.4,6.535,1.84a5.213,5.213,0,0,0,2.982-.063A3.213,3.213,0,0,0,58.149,133.772Z" transform="translate(0 -16.121)" fill="#bbbe09"/>
    <g id="Group_605" data-name="Group 605" transform="translate(108.842 109.467)">
      <path id="Path_1606" data-name="Path 1606" d="M148.424,145.528l3.045,2.665-2.221.761-2.094-2.094-1.269,1.332v1.84c-.571.19-1.079.381-1.586.508v-5.583l1.586-.508v1.967l2.665-2.792,2.538-.825Z" transform="translate(-144.3 -133.41)" fill="#736553"/>
      <path id="Path_1607" data-name="Path 1607" d="M161.712,139.568c-.19.063-.381.063-.571.127-1.332.444-4.441,1.459-4.441,1.459v5.583s1.015-.317,1.586-.508v-2.094c1.015-.317,1.9-.634,2.792-.952a3.366,3.366,0,0,0,1.079-.508,2.819,2.819,0,0,0,1.142-1.459C163.552,139.949,162.981,139.314,161.712,139.568Zm-.444,2.157c-.127.063-.317.127-.444.19-.825.254-2.538.825-2.538.825v-.7s2.03-.7,2.982-1.015c.19-.063.381,0,.381.19A.553.553,0,0,1,161.268,141.725Z" transform="translate(-148.833 -132.209)" fill="#736553"/>
      <path id="Path_1608" data-name="Path 1608" d="M173.7,141.158l-2.665-4.758-1.967.634-2.665,6.471,1.713-.571.444-1.142s1.9-.634,2.792-.952c.127.317.317.571.444.825C172.491,141.539,173.7,141.158,173.7,141.158Zm-4.5-.825.888-2.157s.508,1.079.761,1.586C170.27,139.953,169.192,140.334,169.192,140.334Z" transform="translate(-152.379 -131.071)" fill="#736553"/>
      <path id="Path_1609" data-name="Path 1609" d="M192.121,130.665c-.761.254-2.157.7-2.157.7l-.063-1.4L195.8,128v1.4c-.7.254-1.332.444-2.094.7,0,1.4-.063,4.251-.063,4.251l-1.586.508S192.121,132.06,192.121,130.665Z" transform="translate(-160.969 -128)" fill="#736553"/>
      <path id="Path_1610" data-name="Path 1610" d="M183.918,132.954a5.286,5.286,0,0,0-1.4.19,1.439,1.439,0,0,0-.254.063V132.7l-1.586.508v.508s-.317.127-.508.19a3.578,3.578,0,0,0-1.269.7,2.887,2.887,0,0,0-1.205,2.347c0,.888.381,1.459,1.269,1.459a5.284,5.284,0,0,0,1.4-.19,2.748,2.748,0,0,0,.317-.063v.7l1.586-.508v-.7a1.967,1.967,0,0,1,.444-.127,3.578,3.578,0,0,0,1.269-.7,2.887,2.887,0,0,0,1.205-2.347C185.187,133.525,184.742,133.017,183.918,132.954Zm-3.236,4.06a3.346,3.346,0,0,1-.761.19c-.571.063-.825-.19-.825-.761a1.35,1.35,0,0,1,.825-1.269,3.878,3.878,0,0,1,.761-.317Zm2.284-.825c-.19.127-.508.19-.7.317V134.35c.254-.063.508-.127.7-.19.571-.063.825.19.825.761A1.241,1.241,0,0,1,182.966,136.189Z" transform="translate(-156.509 -129.718)" fill="#736553"/>
      <path id="Path_1611" data-name="Path 1611" d="M148.234,156.886a1.176,1.176,0,0,0-.444.127l-3.489,1.142v4.5l1.4-.444v-1.65l.571-.19c.508-.19,1.015-.317,1.523-.508a5.136,5.136,0,0,0,.825-.381,1.672,1.672,0,0,0,.888-1.205,1.258,1.258,0,0,0-.19-1.205A1.328,1.328,0,0,0,148.234,156.886Zm-.063,1.459a.365.365,0,0,1-.254.381h0c-.063.063-.19.063-.254.127H147.6c-.508.19-1.9.634-1.9.634v-.571l2.284-.761A.2.2,0,0,1,148.17,158.346Z" transform="translate(-144.3 -138.551)" fill="#736553"/>
      <path id="Path_1612" data-name="Path 1612" d="M185.534,144.565a1.176,1.176,0,0,0-.444.127l-3.489,1.142V150.4l1.4-.444v-1.65l.571-.19c.508-.19,1.015-.317,1.523-.508a5.136,5.136,0,0,0,.825-.381,1.672,1.672,0,0,0,.888-1.205,1.258,1.258,0,0,0-.19-1.205C186.422,144.5,186.041,144.438,185.534,144.565Zm-.127,1.4a.365.365,0,0,1-.254.381h0c-.063.063-.19.063-.254.127h-.063c-.508.19-1.9.634-1.9.634v-.571l2.284-.761A.168.168,0,0,1,185.407,145.961Z" transform="translate(-157.935 -134.033)" fill="#736553"/>
      <path id="Path_1613" data-name="Path 1613" d="M155.359,157.2l2.982-1.015V155.04l-3.045,1.015v-.571l3.489-1.142V153.2l-4.885,1.65v4.5l4.949-1.65v-1.142L155.3,157.7Z" transform="translate(-147.809 -137.212)" fill="#736553"/>
      <path id="Path_1614" data-name="Path 1614" d="M174.482,149.238l-1.205-1.079s-1.015.317-1.586.508l-.19.063,2.03,1.776a2.122,2.122,0,0,1-1.586,1.205h-.063v1.332h.127a3.691,3.691,0,0,0,2.347-1.523c.952-1.4,3.172-4.822,3.172-4.822l-1.776.571Z" transform="translate(-154.243 -134.836)" fill="#736553"/>
      <path id="Path_1615" data-name="Path 1615" d="M167.576,153.436a2.5,2.5,0,0,0-.381.127c-.381.127-1.015.317-1.776.571-.254.063-.508.127-.7.19-.254,0-.444,0-.508-.127-.127-.127-.127-.254-.127-.571a1.132,1.132,0,0,1,.761-1.142,5.954,5.954,0,0,1,.952-.381c1.142-.381,1.9-.571,1.9-.571h.063V150.2l-.127.063s-1.269.317-2.665.825a3.844,3.844,0,0,0-1.332.7,2.744,2.744,0,0,0-1.142,2.347c0,.952.444,1.523,1.332,1.586h.19a3.984,3.984,0,0,0,1.205-.19c1.205-.381,2.411-.761,2.474-.761h.063v-1.332Z" transform="translate(-150.953 -136.115)" fill="#736553"/>
      <path id="Path_1616" data-name="Path 1616" d="M194.018,144.734c-.254.063-.508.127-.7.19-.254,0-.444,0-.508-.127-.127-.127-.127-.254-.127-.571a1.132,1.132,0,0,1,.761-1.142,5.956,5.956,0,0,1,.952-.381c1.142-.381,1.967-.571,1.967-.571V140.8s-1.4.381-2.792.888a3.844,3.844,0,0,0-1.332.7,2.744,2.744,0,0,0-1.142,2.347c0,.952.444,1.523,1.332,1.586h.19a3.984,3.984,0,0,0,1.205-.19c1.205-.381,2.474-.825,2.474-.825v-1.332S194.716,144.48,194.018,144.734Z" transform="translate(-161.408 -132.679)" fill="#736553"/>
    </g>
  </g>
</svg>
