<svg xmlns="http://www.w3.org/2000/svg" width="35.169" height="23.066" viewBox="0 0 35.169 23.066">
  <g id="tel_Монтажная_область_1" data-name="tel_Монтажная область 1" transform="translate(0.959 0.75)">
    <path id="Path_1573" data-name="Path 1573" d="M59.871,59.608l5.309-5.64a25.131,25.131,0,0,0-9.522-5.74A23.03,23.03,0,0,0,48.258,47a27.044,27.044,0,0,0-7.7,1.128A17.489,17.489,0,0,0,32,53.968l5.143,5.475,3.55-3.318L36.612,68.567H60.2L56.154,56.124ZM33.327,53.9a17.619,17.619,0,0,1,7.565-4.844,25.492,25.492,0,0,1,7.4-1.095,22.732,22.732,0,0,1,7.1,1.161,24.877,24.877,0,0,1,8.428,4.844l-3.948,4.181-4.048-3.782.265-2.488.1-.8-.763-.265a24.3,24.3,0,0,0-6.934-1.062,22.28,22.28,0,0,0-6.636,1.062l-.664.232v3.285l-4.015,3.716Z" transform="translate(-32 -47)" stroke="#000" stroke-miterlimit="10" stroke-width="1.5"/>
    <rect id="Rectangle_131" data-name="Rectangle 131" width="1.135" height="1.135" transform="translate(13.444 9.963)" fill="#c6d400" stroke="#c6d400" stroke-miterlimit="10" stroke-width="0.7"/>
    <rect id="Rectangle_132" data-name="Rectangle 132" width="1.135" height="1.135" transform="translate(15.856 9.963)" fill="#c6d400" stroke="#c6d400" stroke-miterlimit="10" stroke-width="0.7"/>
    <rect id="Rectangle_133" data-name="Rectangle 133" width="1.135" height="1.135" transform="translate(18.268 9.963)" fill="#c6d400" stroke="#c6d400" stroke-miterlimit="10" stroke-width="0.7"/>
    <rect id="Rectangle_134" data-name="Rectangle 134" width="1.135" height="1.135" transform="translate(13.444 12.233)" fill="#c6d400" stroke="#c6d400" stroke-miterlimit="10" stroke-width="0.7"/>
    <rect id="Rectangle_135" data-name="Rectangle 135" width="1.135" height="1.135" transform="translate(15.856 12.233)" fill="#c6d400" stroke="#c6d400" stroke-miterlimit="10" stroke-width="0.7"/>
    <rect id="Rectangle_136" data-name="Rectangle 136" width="1.135" height="1.135" transform="translate(18.268 12.233)" fill="#c6d400" stroke="#c6d400" stroke-miterlimit="10" stroke-width="0.7"/>
    <rect id="Rectangle_137" data-name="Rectangle 137" width="1.135" height="1.135" transform="translate(13.444 14.503)" fill="#c6d400" stroke="#c6d400" stroke-miterlimit="10" stroke-width="0.7"/>
    <rect id="Rectangle_138" data-name="Rectangle 138" width="1.135" height="1.135" transform="translate(15.856 14.503)" fill="#c6d400" stroke="#c6d400" stroke-miterlimit="10" stroke-width="0.7"/>
    <rect id="Rectangle_139" data-name="Rectangle 139" width="1.135" height="1.135" transform="translate(15.856 16.773)" fill="#c6d400" stroke="#c6d400" stroke-miterlimit="10" stroke-width="0.7"/>
    <rect id="Rectangle_140" data-name="Rectangle 140" width="1.135" height="1.135" transform="translate(18.268 14.503)" fill="#c6d400" stroke="#c6d400" stroke-miterlimit="10" stroke-width="0.7"/>
  </g>
</svg>
