<svg xmlns="http://www.w3.org/2000/svg" viewBox="0 0 583.5 439.49"><defs><style>.cls-1,.cls-3,.cls-4,.cls-5{fill:none;}.cls-2{fill:#c6d400;}.cls-3{stroke:#c6d400;stroke-width:7px;}.cls-4,.cls-5{stroke:#000;}.cls-5{stroke-width:2px;}.cls-6{isolation:isolate;}.cls-7{fill:#121212;}</style></defs><title>home_en</title><g id="Шар_2" data-name="Шар 2"><g id="Шар_1-2" data-name="Шар 1"><g id="Path_1549" data-name="Path 1549"><path class="cls-1" d="M83,336.17v-262l244-34.5,139.5,77,1.5,265-245.5,34Z" transform="translate(0 -2.69)"/><path class="cls-2" d="M223.93,408.41,461,375.58l-1.44-254.77L325.7,46.93,90,80.25V332.1l133.9,76.31m-1.4,7.26L83,336.17v-262l244-34.5,139.5,77,1.5,265Z" transform="translate(0 -2.69)"/></g><path id="Path_1550" data-name="Path 1550" class="cls-3" d="M92.38,76.3,224,151.17l233.58-35.29" transform="translate(0 -2.69)"/><path id="Path_1552" data-name="Path 1552" class="cls-4" d="M84.1,334.8l243.43-32.13,139.16,78" transform="translate(0 -2.69)"/><path id="Path_1553" data-name="Path 1553" class="cls-4" d="M326.91,40.88l.62,261.29" transform="translate(0 -2.69)"/><path id="Path_1554" data-name="Path 1554" class="cls-5" d="M223.53,154.17l-.48,259.35" transform="translate(0 -2.69)"/><path id="Path_1548" data-name="Path 1548" class="cls-5" d="M3,85.67l405-56,138.34,76.44L144,166.67Z" transform="translate(0 -2.69)"/><path id="Path_1547" data-name="Path 1547" class="cls-5" d="M24.18,41.62,265.8,6.89,523,148.9l-246.7,35.5Z" transform="translate(0 -2.69)"/><g id="Group_543" data-name="Group 543"><rect id="Rectangle_124" data-name="Rectangle 124" class="cls-2" x="3.03" y="37.31" width="30.77" height="12.15"/><rect id="Rectangle_130" data-name="Rectangle 130" class="cls-2" x="2.5" y="56.31" width="69" height="12.15"/><g id="_01_дизайн" data-name=" 01 дизайн" class="cls-6"><g class="cls-6"><path d="M17,47a5.56,5.56,0,0,1-1.32,3.93,4.49,4.49,0,0,1-3.48,1.42,4.53,4.53,0,0,1-3.5-1.42A5.56,5.56,0,0,1,7.41,47V43.05a5.64,5.64,0,0,1,1.31-3.93,4.5,4.5,0,0,1,3.49-1.43,4.53,4.53,0,0,1,3.5,1.43A5.59,5.59,0,0,1,17,43.05Zm-2.84-4.21a3.69,3.69,0,0,0-.53-2.12,1.78,1.78,0,0,0-2.9,0,3.78,3.78,0,0,0-.51,2.12v4.49a3.7,3.7,0,0,0,.52,2.14,1.66,1.66,0,0,0,1.46.75,1.64,1.64,0,0,0,1.44-.75,3.7,3.7,0,0,0,.52-2.14Z" transform="translate(0 -2.69)"/><path d="M25.73,52.11H22.89V40.37H20V38.19l5.78-.5Z" transform="translate(0 -2.69)"/></g><g class="cls-6"><path d="M7.14,64.91a6.93,6.93,0,0,1,1.07-4,3.52,3.52,0,0,1,3-1.53,2.92,2.92,0,0,1,1.42.34,3.35,3.35,0,0,1,1.12,1V54.88h2.86V70.11H14.23L14,68.81a3.49,3.49,0,0,1-1.18,1.12,3.11,3.11,0,0,1-1.56.38,3.58,3.58,0,0,1-3-1.42,6.15,6.15,0,0,1-1.07-3.77Zm2.84.21a4.23,4.23,0,0,0,.47,2.18,1.63,1.63,0,0,0,1.52.8A2.25,2.25,0,0,0,13,67.85a2,2,0,0,0,.76-.73v-4.5a2.34,2.34,0,0,0-.75-.78A2,2,0,0,0,12,61.56a1.61,1.61,0,0,0-1.53.93A5.29,5.29,0,0,0,10,64.91Z" transform="translate(0 -2.69)"/><path d="M23.44,70.31a4.75,4.75,0,0,1-3.69-1.45,5.32,5.32,0,0,1-1.33-3.73v-.39a5.8,5.8,0,0,1,1.29-3.89,4.37,4.37,0,0,1,3.55-1.5,4.11,4.11,0,0,1,3.27,1.3,5.19,5.19,0,0,1,1.13,3.51v1.48h-6.3l0,.06A2.89,2.89,0,0,0,22,67.45a2.22,2.22,0,0,0,1.76.68,5.77,5.77,0,0,0,1.62-.2,6.74,6.74,0,0,0,1.38-.59l.78,1.75a5.22,5.22,0,0,1-1.72.87A7.5,7.5,0,0,1,23.44,70.31Zm-.18-8.77a1.56,1.56,0,0,0-1.32.6,3,3,0,0,0-.57,1.56l0,0h3.48v-.21a2.48,2.48,0,0,0-.38-1.46A1.39,1.39,0,0,0,23.26,61.54Z" transform="translate(0 -2.69)"/><path d="M35,67.18a1,1,0,0,0-.46-.81,4.67,4.67,0,0,0-1.68-.59,6.63,6.63,0,0,1-2.82-1.12,2.45,2.45,0,0,1-1-2,2.91,2.91,0,0,1,1.15-2.32,4.69,4.69,0,0,1,3.07-.95,5,5,0,0,1,3.2.95,2.81,2.81,0,0,1,1.16,2.39l0,.06H34.93a1.4,1.4,0,0,0-.41-1,1.93,1.93,0,0,0-2.27-.06,1.09,1.09,0,0,0-.4.84,1,1,0,0,0,.42.8,4.64,4.64,0,0,0,1.68.55A6.8,6.8,0,0,1,36.85,65a2.52,2.52,0,0,1,.95,2.08,2.81,2.81,0,0,1-1.22,2.34,5.3,5.3,0,0,1-3.22.9A4.92,4.92,0,0,1,30,69.25a3,3,0,0,1-1.17-2.44l0-.06h2.61A1.48,1.48,0,0,0,32,68a2.32,2.32,0,0,0,1.38.38,1.91,1.91,0,0,0,1.2-.32A1,1,0,0,0,35,67.18Z" transform="translate(0 -2.69)"/><path d="M42.63,57H39.78V54.88h2.85Zm0,13.1H39.78V59.54h2.85Z" transform="translate(0 -2.69)"/><path d="M44.56,64.91a6.86,6.86,0,0,1,1.08-4,3.52,3.52,0,0,1,3-1.53,3,3,0,0,1,1.56.4,3.47,3.47,0,0,1,1.15,1.14l.23-1.35h2.45V70.06a3.93,3.93,0,0,1-1.35,3.19A5.7,5.7,0,0,1,49,74.38a7.56,7.56,0,0,1-1.7-.22,8.35,8.35,0,0,1-1.66-.6l.48-2.13a6.76,6.76,0,0,0,1.35.47,6.6,6.6,0,0,0,1.51.16,2.55,2.55,0,0,0,1.73-.49,1.94,1.94,0,0,0,.55-1.52v-1a3.12,3.12,0,0,1-1.11.91,3.19,3.19,0,0,1-1.45.31,3.58,3.58,0,0,1-3-1.42,6.09,6.09,0,0,1-1.08-3.77Zm2.85.21a4.34,4.34,0,0,0,.46,2.18,1.63,1.63,0,0,0,1.52.8,2.34,2.34,0,0,0,1.11-.24,1.82,1.82,0,0,0,.73-.7V62.58a1.88,1.88,0,0,0-.73-.75,2.1,2.1,0,0,0-1.09-.27,1.59,1.59,0,0,0-1.52.93,5.29,5.29,0,0,0-.48,2.42Z" transform="translate(0 -2.69)"/><path d="M58.87,59.54,59,61.06a3.9,3.9,0,0,1,1.3-1.26A3.36,3.36,0,0,1,62,59.35a3.13,3.13,0,0,1,2.5,1,4.85,4.85,0,0,1,.9,3.25v6.48H62.57V63.64a2.53,2.53,0,0,0-.4-1.6A1.45,1.45,0,0,0,61,61.56a2.45,2.45,0,0,0-1.11.24,2.15,2.15,0,0,0-.8.66v7.65H56.22V59.54Z" transform="translate(0 -2.69)"/></g></g></g><rect id="Rectangle_124-2" data-name="Rectangle 124-2" class="cls-2" x="237.03" y="2.31" width="31.65" height="12.15"/><path id="Path_1561" data-name="Path 1561" class="cls-2" d="M238.5,24h345V36.15h-345Z" transform="translate(0 -2.69)"/><g id="_02_конструювання" data-name=" 02 конструювання" class="cls-6"><g class="cls-6"><path d="M252.09,12a5.6,5.6,0,0,1-1.31,3.93,5,5,0,0,1-7,0A5.56,5.56,0,0,1,242.47,12V8.05a5.59,5.59,0,0,1,1.32-3.93,5,5,0,0,1,7,0,5.59,5.59,0,0,1,1.32,3.93Zm-2.84-4.21a3.69,3.69,0,0,0-.52-2.12,1.67,1.67,0,0,0-1.45-.75,1.65,1.65,0,0,0-1.45.75,3.77,3.77,0,0,0-.52,2.12v4.49a3.78,3.78,0,0,0,.52,2.14,1.69,1.69,0,0,0,1.47.75,1.64,1.64,0,0,0,1.44-.75,3.78,3.78,0,0,0,.51-2.14Z" transform="translate(0 -2.69)"/><path d="M263.7,17.11h-9.54V15.24l4.41-5a11.8,11.8,0,0,0,1.4-2,3.23,3.23,0,0,0,.41-1.48,2.09,2.09,0,0,0-.44-1.41,1.61,1.61,0,0,0-1.31-.53,1.7,1.7,0,0,0-1.44.68,2.76,2.76,0,0,0-.51,1.71h-2.77l0-.06A4.22,4.22,0,0,1,255.14,4a4.66,4.66,0,0,1,3.49-1.31A4.82,4.82,0,0,1,262,3.8a3.9,3.9,0,0,1,1.21,3,4.22,4.22,0,0,1-.67,2.33,28.11,28.11,0,0,1-2.34,2.92l-2.35,2.81,0,.05h5.81Z" transform="translate(0 -2.69)"/></g><g class="cls-6"><path d="M242.2,29.91a6.86,6.86,0,0,1,1.08-4,3.5,3.5,0,0,1,3-1.53,3,3,0,0,1,1.43.34,3.42,3.42,0,0,1,1.11,1V19.88h2.86V35.11h-2.43l-.24-1.3a3.61,3.61,0,0,1-1.19,1.12,3.06,3.06,0,0,1-1.56.38,3.57,3.57,0,0,1-3-1.42,6.09,6.09,0,0,1-1.08-3.77Zm2.84.21a4.33,4.33,0,0,0,.47,2.18,1.63,1.63,0,0,0,1.52.8,2.33,2.33,0,0,0,1.08-.25,2.09,2.09,0,0,0,.75-.73v-4.5a2.25,2.25,0,0,0-.75-.78,2,2,0,0,0-1.06-.28,1.63,1.63,0,0,0-1.53.93,5.29,5.29,0,0,0-.48,2.42Z" transform="translate(0 -2.69)"/><path d="M258.51,35.31a4.73,4.73,0,0,1-3.69-1.45,5.28,5.28,0,0,1-1.33-3.73v-.39a5.8,5.8,0,0,1,1.29-3.89,4.36,4.36,0,0,1,3.54-1.5,4.11,4.11,0,0,1,3.27,1.3,5.15,5.15,0,0,1,1.14,3.51v1.48h-6.3l0,.06a2.77,2.77,0,0,0,.66,1.75,2.2,2.2,0,0,0,1.75.68,5.9,5.9,0,0,0,1.63-.2,7.24,7.24,0,0,0,1.38-.59l.77,1.75a5.12,5.12,0,0,1-1.72.87A7.44,7.44,0,0,1,258.51,35.31Zm-.19-8.77a1.57,1.57,0,0,0-1.32.6,2.88,2.88,0,0,0-.56,1.56l0,.05h3.47v-.21a2.41,2.41,0,0,0-.38-1.46A1.39,1.39,0,0,0,258.32,26.54Z" transform="translate(0 -2.69)"/><path d="M268.08,31.17l.18,1h.06l.2-1,1.74-6.63h3l-3.59,10.57h-2.72l-3.6-10.57h3Z" transform="translate(0 -2.69)"/><path d="M278.93,35.31a4.73,4.73,0,0,1-3.69-1.45,5.28,5.28,0,0,1-1.33-3.73v-.39a5.8,5.8,0,0,1,1.29-3.89,4.36,4.36,0,0,1,3.54-1.5,4.11,4.11,0,0,1,3.27,1.3,5.15,5.15,0,0,1,1.14,3.51v1.48h-6.3l0,.06a2.77,2.77,0,0,0,.66,1.75,2.2,2.2,0,0,0,1.75.68,5.9,5.9,0,0,0,1.63-.2,7.24,7.24,0,0,0,1.38-.59l.77,1.75a5.12,5.12,0,0,1-1.72.87A7.44,7.44,0,0,1,278.93,35.31Zm-.19-8.77a1.57,1.57,0,0,0-1.32.6,2.88,2.88,0,0,0-.56,1.56l0,.05h3.47v-.21a2.41,2.41,0,0,0-.38-1.46A1.39,1.39,0,0,0,278.74,26.54Z" transform="translate(0 -2.69)"/><path d="M287.81,35.11H285V19.88h2.86Z" transform="translate(0 -2.69)"/><path d="M289.71,29.73A5.64,5.64,0,0,1,291,25.86a4.57,4.57,0,0,1,3.65-1.51,4.64,4.64,0,0,1,3.67,1.5,5.63,5.63,0,0,1,1.33,3.88v.2a5.68,5.68,0,0,1-1.32,3.89,5.25,5.25,0,0,1-7.33,0,5.68,5.68,0,0,1-1.32-3.89Zm2.84.2a4.56,4.56,0,0,0,.51,2.32,1.74,1.74,0,0,0,1.64.88,1.76,1.76,0,0,0,1.62-.88,4.61,4.61,0,0,0,.51-2.32v-.2a4.5,4.5,0,0,0-.52-2.3,1.92,1.92,0,0,0-3.25,0,4.57,4.57,0,0,0-.51,2.29Z" transform="translate(0 -2.69)"/><path d="M311,30.12a6.09,6.09,0,0,1-1.08,3.77,3.6,3.6,0,0,1-3,1.42,3.49,3.49,0,0,1-1.48-.3,3.09,3.09,0,0,1-1.1-.91v5.07h-2.84V24.54H304l.16,1.25a3.38,3.38,0,0,1,1.13-1.07,3.05,3.05,0,0,1,1.54-.37,3.53,3.53,0,0,1,3.05,1.53,6.86,6.86,0,0,1,1.08,4Zm-2.85-.21a5.15,5.15,0,0,0-.5-2.42,1.62,1.62,0,0,0-1.52-.93,2.11,2.11,0,0,0-1.1.27,1.8,1.8,0,0,0-.72.75v4.63a1.69,1.69,0,0,0,.72.68,2.35,2.35,0,0,0,1.12.24,1.62,1.62,0,0,0,1.51-.81,4.22,4.22,0,0,0,.49-2.2Z" transform="translate(0 -2.69)"/><path d="M315.73,22h-2.86V19.88h2.86Zm0,13.1h-2.86V24.54h2.86Z" transform="translate(0 -2.69)"/><path d="M320.68,24.54l.12,1.52a3.9,3.9,0,0,1,1.3-1.26,3.38,3.38,0,0,1,1.73-.45,3.13,3.13,0,0,1,2.5,1,4.85,4.85,0,0,1,.9,3.25v6.48h-2.86V28.64A2.47,2.47,0,0,0,324,27a1.44,1.44,0,0,0-1.18-.48,2.46,2.46,0,0,0-1.12.24,2.24,2.24,0,0,0-.8.66v7.65H318V24.54Z" transform="translate(0 -2.69)"/><path d="M328.94,29.91a6.86,6.86,0,0,1,1.08-4,3.52,3.52,0,0,1,3.05-1.53,3,3,0,0,1,1.56.4,3.38,3.38,0,0,1,1.15,1.14l.23-1.35h2.45V35.06a3.93,3.93,0,0,1-1.35,3.19,5.7,5.7,0,0,1-3.76,1.13,7.56,7.56,0,0,1-1.7-.22,8.35,8.35,0,0,1-1.66-.6l.48-2.13a6.76,6.76,0,0,0,1.35.47,6.6,6.6,0,0,0,1.51.16,2.55,2.55,0,0,0,1.73-.49,1.94,1.94,0,0,0,.55-1.52v-1a3.12,3.12,0,0,1-1.11.91,3.19,3.19,0,0,1-1.45.31,3.58,3.58,0,0,1-3-1.42,6.09,6.09,0,0,1-1.08-3.77Zm2.85.21a4.34,4.34,0,0,0,.46,2.18,1.63,1.63,0,0,0,1.52.8,2.34,2.34,0,0,0,1.11-.24,1.82,1.82,0,0,0,.73-.7V27.58a1.88,1.88,0,0,0-.73-.75,2.07,2.07,0,0,0-1.09-.27,1.6,1.6,0,0,0-1.52.93,5.29,5.29,0,0,0-.48,2.42Z" transform="translate(0 -2.69)"/><path d="M345.19,29.73a5.64,5.64,0,0,1,1.32-3.87,4.57,4.57,0,0,1,3.65-1.51,4.64,4.64,0,0,1,3.67,1.5,5.63,5.63,0,0,1,1.33,3.88v.2a5.68,5.68,0,0,1-1.32,3.89,5.25,5.25,0,0,1-7.33,0,5.68,5.68,0,0,1-1.32-3.89Zm2.84.2a4.56,4.56,0,0,0,.51,2.32,1.94,1.94,0,0,0,3.25,0,4.5,4.5,0,0,0,.52-2.32v-.2a4.5,4.5,0,0,0-.52-2.3,1.76,1.76,0,0,0-1.63-.89,1.73,1.73,0,0,0-1.62.9,4.57,4.57,0,0,0-.51,2.29Z" transform="translate(0 -2.69)"/><path d="M357.66,35.11V26.54h-1.57v-2h1.57V23.37a3.59,3.59,0,0,1,1-2.74,4.07,4.07,0,0,1,2.88-1,6.13,6.13,0,0,1,.74,0c.25,0,.53.09.83.16L362.88,22l-.45-.06a3.89,3.89,0,0,0-.51,0,1.33,1.33,0,0,0-1.05.38,1.52,1.52,0,0,0-.36,1.09v1.17h2v2h-2v8.57Z" transform="translate(0 -2.69)"/><path d="M378.4,30.12a6.09,6.09,0,0,1-1.08,3.77,3.59,3.59,0,0,1-3,1.42,3.49,3.49,0,0,1-1.48-.3,3.18,3.18,0,0,1-1.1-.91v5.07h-2.84V24.54h2.57l.16,1.25a3.48,3.48,0,0,1,1.13-1.07,3.05,3.05,0,0,1,1.54-.37,3.53,3.53,0,0,1,3.05,1.53,6.86,6.86,0,0,1,1.08,4Zm-2.85-.21a5.15,5.15,0,0,0-.5-2.42,1.62,1.62,0,0,0-1.52-.93,2.11,2.11,0,0,0-1.1.27,1.86,1.86,0,0,0-.72.75v4.63a1.74,1.74,0,0,0,.72.68,2.35,2.35,0,0,0,1.12.24,1.65,1.65,0,0,0,1.52-.81,4.33,4.33,0,0,0,.48-2.2Z" transform="translate(0 -2.69)"/><path d="M386.39,35.11c-.1-.24-.19-.5-.27-.76a5.66,5.66,0,0,1-.16-.82,4,4,0,0,1-1.16,1.28,2.91,2.91,0,0,1-1.72.5,3.57,3.57,0,0,1-2.56-.85,3.07,3.07,0,0,1-.9-2.33,2.79,2.79,0,0,1,1.2-2.41,6,6,0,0,1,3.49-.85h1.6V28a1.62,1.62,0,0,0-.4-1.18,1.9,1.9,0,0,0-2.26-.09,1.21,1.21,0,0,0-.38.93h-2.74l0-.06a2.66,2.66,0,0,1,1.17-2.31,5,5,0,0,1,3.22-1,4.81,4.81,0,0,1,3.09.95,3.36,3.36,0,0,1,1.17,2.75v4.36a8.83,8.83,0,0,0,.11,1.4,7.62,7.62,0,0,0,.36,1.3Zm-2.61-1.9a2.41,2.41,0,0,0,1.33-.38,1.92,1.92,0,0,0,.8-.86V30.48h-1.6a1.88,1.88,0,0,0-1.37.45,1.48,1.48,0,0,0-.47,1.1,1.11,1.11,0,0,0,.35.86A1.37,1.37,0,0,0,383.78,33.21Z" transform="translate(0 -2.69)"/><path d="M395.31,33.13a1.53,1.53,0,0,0,1.63-1.63h2.59l0,.05a3.31,3.31,0,0,1-1.19,2.69,4.44,4.44,0,0,1-3.05,1.07,4.53,4.53,0,0,1-3.62-1.49A5.73,5.73,0,0,1,390.41,30v-.29a5.72,5.72,0,0,1,1.28-3.83,4.45,4.45,0,0,1,3.61-1.51,4.37,4.37,0,0,1,3.11,1.11,3.7,3.7,0,0,1,1.14,2.93l0,.06h-2.59a2.09,2.09,0,0,0-.44-1.36,1.46,1.46,0,0,0-1.2-.55,1.63,1.63,0,0,0-1.57.89,4.83,4.83,0,0,0-.47,2.26V30a4.83,4.83,0,0,0,.47,2.28A1.65,1.65,0,0,0,395.31,33.13Z" transform="translate(0 -2.69)"/><path d="M404.79,30.69h-.73v4.42h-2.85V19.88h2.85v8.64h.64l2.53-4h3.3l-3.44,4.82L411,35.11h-3.28Z" transform="translate(0 -2.69)"/><path d="M418.16,35.11a4.89,4.89,0,0,1-.27-.76,4.57,4.57,0,0,1-.16-.82,4,4,0,0,1-1.17,1.28,2.88,2.88,0,0,1-1.71.5,3.57,3.57,0,0,1-2.56-.85,3.07,3.07,0,0,1-.9-2.33,2.79,2.79,0,0,1,1.2-2.41,6,6,0,0,1,3.49-.85h1.6V28a1.62,1.62,0,0,0-.4-1.18,1.58,1.58,0,0,0-1.19-.42,1.56,1.56,0,0,0-1.07.33,1.21,1.21,0,0,0-.38.93H411.9l0-.06A2.68,2.68,0,0,1,413,25.32a5.07,5.07,0,0,1,3.23-1,4.76,4.76,0,0,1,3.08.95,3.34,3.34,0,0,1,1.18,2.75v4.36a8.83,8.83,0,0,0,.11,1.4,7.62,7.62,0,0,0,.36,1.3Zm-2.61-1.9a2.43,2.43,0,0,0,1.33-.38,1.92,1.92,0,0,0,.8-.86V30.48h-1.6a1.91,1.91,0,0,0-1.38.45,1.51,1.51,0,0,0-.46,1.1,1.11,1.11,0,0,0,.35.86A1.37,1.37,0,0,0,415.55,33.21Z" transform="translate(0 -2.69)"/><path d="M422.25,29.91a6.86,6.86,0,0,1,1.08-4,3.53,3.53,0,0,1,3.05-1.53,3,3,0,0,1,1.56.4,3.38,3.38,0,0,1,1.15,1.14l.23-1.35h2.45V35.06a3.93,3.93,0,0,1-1.35,3.19,5.7,5.7,0,0,1-3.76,1.13,7.56,7.56,0,0,1-1.7-.22,8.35,8.35,0,0,1-1.66-.6l.48-2.13a6.76,6.76,0,0,0,1.35.47,6.6,6.6,0,0,0,1.51.16,2.55,2.55,0,0,0,1.73-.49,1.94,1.94,0,0,0,.55-1.52v-1a3.12,3.12,0,0,1-1.11.91,3.19,3.19,0,0,1-1.45.31,3.59,3.59,0,0,1-3-1.42,6.09,6.09,0,0,1-1.08-3.77Zm2.85.21a4.44,4.44,0,0,0,.46,2.18,1.63,1.63,0,0,0,1.52.8,2.34,2.34,0,0,0,1.11-.24,1.82,1.82,0,0,0,.73-.7V27.58a1.88,1.88,0,0,0-.73-.75,2.07,2.07,0,0,0-1.09-.27,1.6,1.6,0,0,0-1.52.93,5.29,5.29,0,0,0-.48,2.42Z" transform="translate(0 -2.69)"/><path d="M437,22H434.1V19.88H437Zm0,13.1H434.1V24.54H437Z" transform="translate(0 -2.69)"/><path d="M441.91,24.54l.12,1.52a4,4,0,0,1,1.3-1.26,3.38,3.38,0,0,1,1.73-.45,3.13,3.13,0,0,1,2.5,1,4.85,4.85,0,0,1,.9,3.25v6.48H445.6V28.64a2.47,2.47,0,0,0-.4-1.6,1.44,1.44,0,0,0-1.18-.48,2.46,2.46,0,0,0-1.12.24,2.24,2.24,0,0,0-.8.66v7.65h-2.85V24.54Z" transform="translate(0 -2.69)"/><path d="M450.17,29.91a6.86,6.86,0,0,1,1.08-4,3.53,3.53,0,0,1,3.05-1.53,3,3,0,0,1,1.56.4A3.38,3.38,0,0,1,457,25.89l.23-1.35h2.45V35.06a3.93,3.93,0,0,1-1.35,3.19,5.7,5.7,0,0,1-3.76,1.13,7.56,7.56,0,0,1-1.7-.22,8.35,8.35,0,0,1-1.66-.6l.48-2.13a6.76,6.76,0,0,0,1.35.47,6.6,6.6,0,0,0,1.51.16,2.55,2.55,0,0,0,1.73-.49,1.94,1.94,0,0,0,.55-1.52v-1a3.12,3.12,0,0,1-1.11.91,3.19,3.19,0,0,1-1.45.31,3.59,3.59,0,0,1-3-1.42,6.09,6.09,0,0,1-1.08-3.77Zm2.85.21a4.44,4.44,0,0,0,.46,2.18,1.63,1.63,0,0,0,1.52.8,2.34,2.34,0,0,0,1.11-.24,1.82,1.82,0,0,0,.73-.7V27.58a1.88,1.88,0,0,0-.73-.75,2.07,2.07,0,0,0-1.09-.27,1.6,1.6,0,0,0-1.52.93,5.29,5.29,0,0,0-.48,2.42Z" transform="translate(0 -2.69)"/><path d="M471.27,33.13a1.53,1.53,0,0,0,1.62-1.63h2.6l0,.05a3.31,3.31,0,0,1-1.19,2.69,4.46,4.46,0,0,1-3.05,1.07,4.52,4.52,0,0,1-3.62-1.49A5.73,5.73,0,0,1,466.37,30v-.29a5.71,5.71,0,0,1,1.27-3.83,4.46,4.46,0,0,1,3.61-1.51,4.38,4.38,0,0,1,3.12,1.11,3.7,3.7,0,0,1,1.14,2.93l0,.06h-2.6a2.09,2.09,0,0,0-.43-1.36,1.47,1.47,0,0,0-1.21-.55,1.62,1.62,0,0,0-1.56.89,4.83,4.83,0,0,0-.47,2.26V30a4.83,4.83,0,0,0,.47,2.28A1.63,1.63,0,0,0,471.27,33.13Z" transform="translate(0 -2.69)"/><path d="M476.73,29.73a5.64,5.64,0,0,1,1.32-3.87,4.59,4.59,0,0,1,3.65-1.51,4.64,4.64,0,0,1,3.67,1.5,5.63,5.63,0,0,1,1.33,3.88v.2a5.68,5.68,0,0,1-1.32,3.89,5.25,5.25,0,0,1-7.33,0,5.68,5.68,0,0,1-1.32-3.89Zm2.84.2a4.56,4.56,0,0,0,.51,2.32,1.95,1.95,0,0,0,3.26,0,4.61,4.61,0,0,0,.51-2.32v-.2a4.5,4.5,0,0,0-.52-2.3,1.75,1.75,0,0,0-1.63-.89,1.72,1.72,0,0,0-1.61.9,4.46,4.46,0,0,0-.52,2.29Z" transform="translate(0 -2.69)"/><path d="M491.07,24.54l.12,1.52a4,4,0,0,1,1.3-1.26,3.38,3.38,0,0,1,1.73-.45,3.13,3.13,0,0,1,2.5,1,4.85,4.85,0,0,1,.9,3.25v6.48h-2.86V28.64a2.47,2.47,0,0,0-.4-1.6,1.44,1.44,0,0,0-1.18-.48,2.46,2.46,0,0,0-1.12.24,2.24,2.24,0,0,0-.8.66v7.65h-2.85V24.54Z" transform="translate(0 -2.69)"/><path d="M505.46,32.18a1,1,0,0,0-.45-.81,4.82,4.82,0,0,0-1.69-.59,6.64,6.64,0,0,1-2.81-1.12,2.43,2.43,0,0,1-1-2,2.92,2.92,0,0,1,1.16-2.32,4.67,4.67,0,0,1,3.06-.95,5,5,0,0,1,3.21.95,2.83,2.83,0,0,1,1.16,2.39l0,.06h-2.76a1.36,1.36,0,0,0-.41-1,1.91,1.91,0,0,0-2.26-.06,1.06,1.06,0,0,0-.4.84,1,1,0,0,0,.41.8,4.71,4.71,0,0,0,1.69.55A6.76,6.76,0,0,1,507.27,30a2.5,2.5,0,0,1,1,2.08A2.8,2.8,0,0,1,507,34.41a5.28,5.28,0,0,1-3.22.9,4.89,4.89,0,0,1-3.33-1.06,3,3,0,0,1-1.17-2.44l0-.06h2.61a1.47,1.47,0,0,0,.55,1.23,2.32,2.32,0,0,0,1.38.38,1.92,1.92,0,0,0,1.21-.32A1,1,0,0,0,505.46,32.18Z" transform="translate(0 -2.69)"/><path d="M513.48,22v2.58h1.79v2h-1.79v5.39a1.16,1.16,0,0,0,.26.87.9.9,0,0,0,.68.27,2.21,2.21,0,0,0,.39,0,2.37,2.37,0,0,0,.38-.08l.23,2.06a5.38,5.38,0,0,1-.83.22,4.94,4.94,0,0,1-.89.07,3,3,0,0,1-2.27-.81,3.54,3.54,0,0,1-.79-2.56v-5.4h-1.55v-2h1.55V22Z" transform="translate(0 -2.69)"/><path d="M522.58,27l-1,0a1.86,1.86,0,0,0-1,.27,1.62,1.62,0,0,0-.62.74v7.14H517V24.54h2.65l.13,1.57a3.28,3.28,0,0,1,1-1.3,2.13,2.13,0,0,1,1.36-.46,2.41,2.41,0,0,1,.4,0l.36.08Z" transform="translate(0 -2.69)"/><path d="M530.54,33.55a3.73,3.73,0,0,1-1.24,1.31,3.33,3.33,0,0,1-1.75.45,3.2,3.2,0,0,1-2.61-1.13,5.41,5.41,0,0,1-.94-3.51V24.54h2.84v6.15a3.4,3.4,0,0,0,.37,1.89,1.35,1.35,0,0,0,1.17.52,2.91,2.91,0,0,0,1.17-.22,2,2,0,0,0,.8-.65V24.54h2.86V35.11h-2.37Z" transform="translate(0 -2.69)"/><path d="M539.77,33.13a1.57,1.57,0,0,0,1.18-.45,1.61,1.61,0,0,0,.44-1.18H544l0,.05a3.32,3.32,0,0,1-1.2,2.69,4.43,4.43,0,0,1-3,1.07,4.55,4.55,0,0,1-3.63-1.49A5.72,5.72,0,0,1,534.87,30v-.29a5.71,5.71,0,0,1,1.27-3.83,4.45,4.45,0,0,1,3.61-1.51,4.34,4.34,0,0,1,3.11,1.11A3.74,3.74,0,0,1,544,28.39l0,.06h-2.6a2.09,2.09,0,0,0-.44-1.36,1.46,1.46,0,0,0-1.2-.55,1.63,1.63,0,0,0-1.57.89,4.83,4.83,0,0,0-.46,2.26V30a4.84,4.84,0,0,0,.46,2.28A1.65,1.65,0,0,0,539.77,33.13Z" transform="translate(0 -2.69)"/><path d="M549.08,22v2.58h1.79v2h-1.79v5.39a1.21,1.21,0,0,0,.26.87.91.91,0,0,0,.68.27,2.21,2.21,0,0,0,.39,0,2.16,2.16,0,0,0,.38-.08L551,35a5.81,5.81,0,0,1-.84.22,4.83,4.83,0,0,1-.88.07A3,3,0,0,1,547,34.5a3.54,3.54,0,0,1-.8-2.56v-5.4H544.7v-2h1.54V22Z" transform="translate(0 -2.69)"/><path d="M555.63,22h-2.85V19.88h2.85Zm0,13.1h-2.85V24.54h2.85Z" transform="translate(0 -2.69)"/><path d="M557.53,29.73a5.64,5.64,0,0,1,1.32-3.87,4.59,4.59,0,0,1,3.65-1.51,4.64,4.64,0,0,1,3.67,1.5,5.63,5.63,0,0,1,1.33,3.88v.2a5.68,5.68,0,0,1-1.32,3.89,5.25,5.25,0,0,1-7.33,0,5.68,5.68,0,0,1-1.32-3.89Zm2.84.2a4.56,4.56,0,0,0,.51,2.32,1.95,1.95,0,0,0,3.26,0,4.61,4.61,0,0,0,.51-2.32v-.2a4.5,4.5,0,0,0-.52-2.3,1.75,1.75,0,0,0-1.63-.89,1.72,1.72,0,0,0-1.61.9,4.46,4.46,0,0,0-.52,2.29Z" transform="translate(0 -2.69)"/><path d="M571.87,24.54l.12,1.52a4,4,0,0,1,1.3-1.26,3.38,3.38,0,0,1,1.73-.45,3.13,3.13,0,0,1,2.5,1,4.85,4.85,0,0,1,.9,3.25v6.48h-2.86V28.64a2.47,2.47,0,0,0-.4-1.6,1.44,1.44,0,0,0-1.18-.48,2.46,2.46,0,0,0-1.12.24,2.24,2.24,0,0,0-.8.66v7.65h-2.85V24.54Z" transform="translate(0 -2.69)"/></g></g><g id="Group_545" data-name="Group 545"><rect id="Rectangle_124-3" data-name="Rectangle 124-3" class="cls-2" x="475.03" y="118.31" width="32.65" height="12.15"/><rect id="Rectangle_126" data-name="Rectangle 126" class="cls-2" x="475" y="154.27" width="96" height="12.15"/><rect id="Rectangle_125" data-name="Rectangle 125" class="cls-2" x="474.5" y="137.31" width="103" height="12.15"/><rect id="Rectangle_126-2" data-name="Rectangle 126" class="cls-2" x="474.5" y="173.87" width="93" height="12.15"/><g id="_03_створення_взірця" data-name=" 03 створення взірця" class="cls-6"><g class="cls-6"><path d="M490.09,128a5.6,5.6,0,0,1-1.31,3.93,5,5,0,0,1-7,0,5.56,5.56,0,0,1-1.32-3.93v-3.91a5.59,5.59,0,0,1,1.32-3.93,5,5,0,0,1,7,0,5.59,5.59,0,0,1,1.32,3.93Zm-2.84-4.21a3.69,3.69,0,0,0-.52-2.12,1.67,1.67,0,0,0-1.45-.75,1.65,1.65,0,0,0-1.45.75,3.77,3.77,0,0,0-.52,2.12v4.49a3.78,3.78,0,0,0,.52,2.14,1.69,1.69,0,0,0,1.47.75,1.64,1.64,0,0,0,1.44-.75,3.78,3.78,0,0,0,.51-2.14Z" transform="translate(0 -2.69)"/><path d="M496.67,124.75a2,2,0,0,0,1.51-.53,2.07,2.07,0,0,0,.5-1.48,1.83,1.83,0,0,0-.52-1.33,2,2,0,0,0-1.45-.53,1.89,1.89,0,0,0-1.31.48,1.59,1.59,0,0,0-.53,1.22h-2.76l0-.06a3.24,3.24,0,0,1,1.29-2.75,5.16,5.16,0,0,1,3.33-1.08,5.42,5.42,0,0,1,3.51,1,3.57,3.57,0,0,1,1.3,3,3.11,3.11,0,0,1-.56,1.79,4,4,0,0,1-1.54,1.29,3.63,3.63,0,0,1,1.72,1.27,3.51,3.51,0,0,1,.6,2.07,3.71,3.71,0,0,1-1.41,3.07,6.24,6.24,0,0,1-7,.06,3.35,3.35,0,0,1-1.4-3l0-.06h2.77a1.79,1.79,0,0,0,.56,1.34,2,2,0,0,0,1.45.55,2.25,2.25,0,0,0,1.59-.58,1.92,1.92,0,0,0,.6-1.45,2.21,2.21,0,0,0-.57-1.67,2.3,2.3,0,0,0-1.66-.54H495.1v-2.14Z" transform="translate(0 -2.69)"/></g><g class="cls-6"><path d="M485.05,149.13a1.53,1.53,0,0,0,1.62-1.63h2.6l0,.05a3.31,3.31,0,0,1-1.19,2.69,4.46,4.46,0,0,1-3.05,1.07,4.52,4.52,0,0,1-3.62-1.49,5.73,5.73,0,0,1-1.28-3.84v-.29a5.72,5.72,0,0,1,1.28-3.83,4.43,4.43,0,0,1,3.6-1.51,4.38,4.38,0,0,1,3.12,1.11,3.7,3.7,0,0,1,1.14,2.93l0,.06h-2.6a2.09,2.09,0,0,0-.43-1.36,1.47,1.47,0,0,0-1.21-.55,1.63,1.63,0,0,0-1.56.89,4.83,4.83,0,0,0-.47,2.26V146a4.83,4.83,0,0,0,.47,2.28A1.65,1.65,0,0,0,485.05,149.13Z" transform="translate(0 -2.69)"/><path d="M496.51,143l-1.05,0a1.85,1.85,0,0,0-1,.27,1.64,1.64,0,0,0-.63.74v7.14H491V140.54h2.65l.13,1.57a3.18,3.18,0,0,1,1-1.3,2.13,2.13,0,0,1,1.36-.46,2.38,2.38,0,0,1,.39,0l.37.08Z" transform="translate(0 -2.69)"/><path d="M502.39,151.31a4.73,4.73,0,0,1-3.69-1.45,5.28,5.28,0,0,1-1.33-3.73v-.39a5.8,5.8,0,0,1,1.29-3.89,4.36,4.36,0,0,1,3.54-1.5,4.11,4.11,0,0,1,3.27,1.3,5.15,5.15,0,0,1,1.14,3.51v1.48h-6.3l0,.06a2.77,2.77,0,0,0,.66,1.75,2.2,2.2,0,0,0,1.75.68,5.9,5.9,0,0,0,1.63-.2,7.24,7.24,0,0,0,1.38-.59l.77,1.75a5.12,5.12,0,0,1-1.72.87A7.44,7.44,0,0,1,502.39,151.31Zm-.19-8.77a1.57,1.57,0,0,0-1.32.6,2.88,2.88,0,0,0-.56,1.56l0,.05h3.47v-.21a2.41,2.41,0,0,0-.38-1.46A1.39,1.39,0,0,0,502.2,142.54Z" transform="translate(0 -2.69)"/><path d="M514.5,151.11a4.89,4.89,0,0,1-.27-.76,4.57,4.57,0,0,1-.16-.82,4,4,0,0,1-1.17,1.28,2.88,2.88,0,0,1-1.71.5,3.57,3.57,0,0,1-2.56-.85,3.07,3.07,0,0,1-.9-2.33,2.79,2.79,0,0,1,1.2-2.41,6,6,0,0,1,3.49-.85H514V144a1.62,1.62,0,0,0-.4-1.18,1.58,1.58,0,0,0-1.19-.42,1.56,1.56,0,0,0-1.07.33,1.21,1.21,0,0,0-.38.93h-2.74l0-.06a2.68,2.68,0,0,1,1.16-2.31,5.07,5.07,0,0,1,3.23-1,4.76,4.76,0,0,1,3.08,1,3.34,3.34,0,0,1,1.18,2.75v4.36a8.83,8.83,0,0,0,.11,1.4,7.62,7.62,0,0,0,.36,1.3Zm-2.61-1.9a2.43,2.43,0,0,0,1.33-.38,1.92,1.92,0,0,0,.8-.86v-1.49h-1.6a1.91,1.91,0,0,0-1.38.45,1.51,1.51,0,0,0-.46,1.1,1.11,1.11,0,0,0,.35.86A1.37,1.37,0,0,0,511.89,149.21Z" transform="translate(0 -2.69)"/><path d="M522.43,138v2.58h1.78v2h-1.78v5.39a1.16,1.16,0,0,0,.26.87.87.87,0,0,0,.67.27,2.21,2.21,0,0,0,.39,0,2.26,2.26,0,0,0,.39-.08l.23,2.06a5.49,5.49,0,0,1-.84.22,4.76,4.76,0,0,1-.88.07,3,3,0,0,1-2.27-.81,3.54,3.54,0,0,1-.8-2.56v-5.4H518v-2h1.54V138Z" transform="translate(0 -2.69)"/><path d="M529,138h-2.85v-2.13H529Zm0,13.1h-2.85V140.54H529Z" transform="translate(0 -2.69)"/><path d="M533.92,140.54l.13,1.52a3.81,3.81,0,0,1,1.3-1.26,3.35,3.35,0,0,1,1.72-.45,3.12,3.12,0,0,1,2.5,1,4.85,4.85,0,0,1,.9,3.25v6.48h-2.86v-6.47a2.53,2.53,0,0,0-.39-1.6,1.46,1.46,0,0,0-1.19-.48,2.49,2.49,0,0,0-1.12.24,2.12,2.12,0,0,0-.79.66v7.65h-2.86V140.54Z" transform="translate(0 -2.69)"/><path d="M542.18,145.91a6.79,6.79,0,0,1,1.09-4,3.5,3.5,0,0,1,3-1.53,3,3,0,0,1,1.57.4,3.57,3.57,0,0,1,1.15,1.14l.22-1.35h2.45v10.52a4,4,0,0,1-1.34,3.19,5.72,5.72,0,0,1-3.76,1.13,7.48,7.48,0,0,1-1.7-.22,8.13,8.13,0,0,1-1.66-.6l.48-2.13a6.35,6.35,0,0,0,1.35.47,6.54,6.54,0,0,0,1.51.16,2.52,2.52,0,0,0,1.72-.49,1.91,1.91,0,0,0,.55-1.52v-1a3.18,3.18,0,0,1-1.1.91,3.23,3.23,0,0,1-1.46.31,3.57,3.57,0,0,1-3-1.42,6,6,0,0,1-1.09-3.77Zm2.85.21a4.33,4.33,0,0,0,.47,2.18,1.62,1.62,0,0,0,1.52.8,2.32,2.32,0,0,0,1.1-.24,1.76,1.76,0,0,0,.73-.7v-4.58a1.82,1.82,0,0,0-.73-.75,2.06,2.06,0,0,0-1.08-.27,1.61,1.61,0,0,0-1.53.93,5.29,5.29,0,0,0-.48,2.42Z" transform="translate(0 -2.69)"/><path d="M565.1,151.11c-.1-.24-.19-.5-.27-.76a7.43,7.43,0,0,1-.16-.82,4,4,0,0,1-1.16,1.28,2.89,2.89,0,0,1-1.72.5,3.58,3.58,0,0,1-2.56-.85,3.07,3.07,0,0,1-.9-2.33,2.79,2.79,0,0,1,1.2-2.41,6,6,0,0,1,3.49-.85h1.6V144a1.62,1.62,0,0,0-.4-1.18,1.55,1.55,0,0,0-1.19-.42,1.57,1.57,0,0,0-1.07.33,1.2,1.2,0,0,0-.37.93h-2.75l0-.06a2.71,2.71,0,0,1,1.17-2.31,5.05,5.05,0,0,1,3.23-1,4.78,4.78,0,0,1,3.08,1,3.37,3.37,0,0,1,1.18,2.75v4.36a7.79,7.79,0,0,0,.11,1.4,6.77,6.77,0,0,0,.35,1.3Zm-2.61-1.9a2.41,2.41,0,0,0,1.33-.38,1.92,1.92,0,0,0,.8-.86v-1.49H563a1.9,1.9,0,0,0-1.37.45,1.47,1.47,0,0,0-.46,1.1,1.11,1.11,0,0,0,.34.86A1.37,1.37,0,0,0,562.49,149.21Z" transform="translate(0 -2.69)"/></g><g class="cls-6"><path d="M486.35,166.18a1,1,0,0,0-.45-.81,4.74,4.74,0,0,0-1.69-.59,6.64,6.64,0,0,1-2.81-1.12,2.46,2.46,0,0,1-1-2,2.92,2.92,0,0,1,1.16-2.32,4.67,4.67,0,0,1,3.06-1,5,5,0,0,1,3.21,1,2.81,2.81,0,0,1,1.16,2.39l0,.06h-2.76a1.36,1.36,0,0,0-.41-1,1.91,1.91,0,0,0-2.26-.06,1.06,1.06,0,0,0-.4.84,1,1,0,0,0,.41.8,4.71,4.71,0,0,0,1.69.55,6.76,6.76,0,0,1,2.89,1.15,2.5,2.5,0,0,1,1,2.08,2.8,2.8,0,0,1-1.23,2.34,5.28,5.28,0,0,1-3.22.9,4.89,4.89,0,0,1-3.33-1.06,3,3,0,0,1-1.17-2.44l0-.06h2.61a1.47,1.47,0,0,0,.55,1.23,2.35,2.35,0,0,0,1.38.38,1.92,1.92,0,0,0,1.21-.32A1,1,0,0,0,486.35,166.18Z" transform="translate(0 -2.69)"/><path d="M497.18,169.11c-.1-.24-.19-.5-.27-.76a7.43,7.43,0,0,1-.16-.82,4,4,0,0,1-1.16,1.28,2.89,2.89,0,0,1-1.72.5,3.58,3.58,0,0,1-2.56-.85,3.07,3.07,0,0,1-.9-2.33,2.79,2.79,0,0,1,1.2-2.41,6,6,0,0,1,3.49-.85h1.6V162a1.62,1.62,0,0,0-.4-1.18,1.55,1.55,0,0,0-1.19-.42,1.57,1.57,0,0,0-1.07.33,1.2,1.2,0,0,0-.37.93h-2.75l0-.06a2.71,2.71,0,0,1,1.17-2.31,5.05,5.05,0,0,1,3.23-1,4.78,4.78,0,0,1,3.08,1,3.37,3.37,0,0,1,1.18,2.75v4.36a7.79,7.79,0,0,0,.11,1.4,6.77,6.77,0,0,0,.35,1.3Zm-2.61-1.9a2.41,2.41,0,0,0,1.33-.38,1.92,1.92,0,0,0,.8-.86v-1.49h-1.6a1.9,1.9,0,0,0-1.37.45,1.47,1.47,0,0,0-.46,1.1,1.11,1.11,0,0,0,.34.86A1.37,1.37,0,0,0,494.57,167.21Z" transform="translate(0 -2.69)"/><path d="M504.34,158.54l.12,1.4a3.58,3.58,0,0,1,1.27-1.18,3.73,3.73,0,0,1,1.77-.41,3.22,3.22,0,0,1,1.74.45,2.76,2.76,0,0,1,1.1,1.35,3.66,3.66,0,0,1,1.27-1.32,3.42,3.42,0,0,1,1.83-.48,3,3,0,0,1,2.47,1.11,5.29,5.29,0,0,1,.9,3.38v6.27H514v-6.28a3,3,0,0,0-.39-1.77,1.39,1.39,0,0,0-1.16-.5,2,2,0,0,0-1,.27,1.9,1.9,0,0,0-.71.75,3.11,3.11,0,0,0,0,.32,2.44,2.44,0,0,1,0,.27v6.94h-2.84v-6.28a3,3,0,0,0-.39-1.75,1.39,1.39,0,0,0-1.18-.52,2.31,2.31,0,0,0-1,.22,2,2,0,0,0-.71.62v7.71h-2.85V158.54Z" transform="translate(0 -2.69)"/><path d="M528.53,164.12a6.09,6.09,0,0,1-1.08,3.77,3.6,3.6,0,0,1-3,1.42,3.49,3.49,0,0,1-1.48-.3,3.09,3.09,0,0,1-1.1-.91v5.07H519V158.54h2.57l.16,1.25a3.48,3.48,0,0,1,1.13-1.07,3.05,3.05,0,0,1,1.54-.37,3.53,3.53,0,0,1,3.05,1.53,6.86,6.86,0,0,1,1.08,4Zm-2.85-.21a5.15,5.15,0,0,0-.5-2.42,1.62,1.62,0,0,0-1.52-.93,2.11,2.11,0,0,0-1.1.27,1.86,1.86,0,0,0-.72.75v4.63a1.74,1.74,0,0,0,.72.68,2.35,2.35,0,0,0,1.12.24,1.62,1.62,0,0,0,1.51-.81,4.22,4.22,0,0,0,.49-2.2Z" transform="translate(0 -2.69)"/><path d="M533.29,169.11h-2.86V153.88h2.86Z" transform="translate(0 -2.69)"/><path d="M540.21,169.31a4.73,4.73,0,0,1-3.69-1.45,5.28,5.28,0,0,1-1.33-3.73v-.39a5.8,5.8,0,0,1,1.29-3.89,4.36,4.36,0,0,1,3.54-1.5,4.11,4.11,0,0,1,3.27,1.3,5.15,5.15,0,0,1,1.14,3.51v1.48h-6.3l0,.06a2.89,2.89,0,0,0,.66,1.75,2.2,2.2,0,0,0,1.75.68,5.9,5.9,0,0,0,1.63-.2,7,7,0,0,0,1.38-.59l.77,1.75a5,5,0,0,1-1.72.87A7.44,7.44,0,0,1,540.21,169.31Zm-.19-8.77a1.57,1.57,0,0,0-1.32.6,2.88,2.88,0,0,0-.56,1.56l0,.05h3.48v-.21a2.41,2.41,0,0,0-.39-1.46A1.39,1.39,0,0,0,540,160.54Z" transform="translate(0 -2.69)"/><path d="M550.63,163.73a5.64,5.64,0,0,1,1.32-3.87,4.57,4.57,0,0,1,3.65-1.51,4.64,4.64,0,0,1,3.67,1.5,5.63,5.63,0,0,1,1.33,3.88v.2a5.68,5.68,0,0,1-1.32,3.89,5.25,5.25,0,0,1-7.33,0,5.68,5.68,0,0,1-1.32-3.89Zm2.84.2a4.56,4.56,0,0,0,.51,2.32,1.74,1.74,0,0,0,1.64.88,1.76,1.76,0,0,0,1.62-.88,4.61,4.61,0,0,0,.51-2.32v-.2a4.5,4.5,0,0,0-.52-2.3,1.92,1.92,0,0,0-3.25,0,4.57,4.57,0,0,0-.51,2.29Z" transform="translate(0 -2.69)"/><path d="M563.1,169.11v-8.57h-1.57v-2h1.57v-1.17a3.56,3.56,0,0,1,1-2.74,4,4,0,0,1,2.88-1,6.11,6.11,0,0,1,.73.05c.25,0,.53.09.83.16l-.25,2.11-.45-.06a3.89,3.89,0,0,0-.51,0,1.35,1.35,0,0,0-1.05.38,1.52,1.52,0,0,0-.36,1.09v1.17h2v2h-2v8.57Z" transform="translate(0 -2.69)"/></g></g></g><g id="Group_547" data-name="Group 547"><rect id="Rectangle_124-4" data-name="Rectangle 124-4" class="cls-2" x="475.03" y="348.31" width="33.21" height="12.15"/><rect id="Rectangle_127" data-name="Rectangle 127" class="cls-2" x="475.03" y="367.31" width="106.9" height="12.15"/><g id="_04_тестуваня" data-name=" 04 тестуваня" class="cls-6"><g class="cls-6"><path d="M490.09,358a5.6,5.6,0,0,1-1.31,3.93,5,5,0,0,1-7,0,5.56,5.56,0,0,1-1.32-3.93v-3.91a5.59,5.59,0,0,1,1.32-3.93,5,5,0,0,1,7,0,5.59,5.59,0,0,1,1.32,3.93Zm-2.84-4.21a3.69,3.69,0,0,0-.52-2.12,1.67,1.67,0,0,0-1.45-.75,1.65,1.65,0,0,0-1.45.75,3.77,3.77,0,0,0-.52,2.12v4.49a3.78,3.78,0,0,0,.52,2.14,1.69,1.69,0,0,0,1.47.75,1.64,1.64,0,0,0,1.44-.75,3.78,3.78,0,0,0,.51-2.14Z" transform="translate(0 -2.69)"/><path d="M500.33,357.82h1.6V360h-1.6v3.09h-2.85V360h-5.8l-.13-1.71,5.9-9.42h2.88Zm-6.19,0h3.34v-5.17h-.06l-.3.64Z" transform="translate(0 -2.69)"/></g><g class="cls-6"><path d="M490.17,376.12a6.09,6.09,0,0,1-1.08,3.77,3.6,3.6,0,0,1-3,1.42,3.49,3.49,0,0,1-1.48-.3,3.09,3.09,0,0,1-1.1-.91v5.07h-2.84V370.54h2.57l.16,1.25a3.48,3.48,0,0,1,1.13-1.07,3.05,3.05,0,0,1,1.54-.37,3.53,3.53,0,0,1,3,1.53,6.86,6.86,0,0,1,1.08,4Zm-2.85-.21a5.15,5.15,0,0,0-.5-2.42,1.62,1.62,0,0,0-1.52-.93,2.11,2.11,0,0,0-1.1.27,1.86,1.86,0,0,0-.72.75v4.63a1.74,1.74,0,0,0,.72.68,2.35,2.35,0,0,0,1.12.24,1.65,1.65,0,0,0,1.52-.81,4.33,4.33,0,0,0,.48-2.2Z" transform="translate(0 -2.69)"/><path d="M498.14,381.11a4.89,4.89,0,0,1-.27-.76,5.66,5.66,0,0,1-.16-.82,4,4,0,0,1-1.16,1.28,2.93,2.93,0,0,1-1.72.5,3.57,3.57,0,0,1-2.56-.85,3.07,3.07,0,0,1-.9-2.33,2.79,2.79,0,0,1,1.2-2.41,6,6,0,0,1,3.49-.85h1.6V374a1.62,1.62,0,0,0-.4-1.18,1.9,1.9,0,0,0-2.26-.09,1.21,1.21,0,0,0-.38.93h-2.74l0-.06a2.66,2.66,0,0,1,1.17-2.31,5,5,0,0,1,3.22-1,4.81,4.81,0,0,1,3.09.95,3.36,3.36,0,0,1,1.17,2.75v4.36a8.83,8.83,0,0,0,.11,1.4,7.62,7.62,0,0,0,.36,1.3Zm-2.61-1.9a2.41,2.41,0,0,0,1.33-.38,1.92,1.92,0,0,0,.8-.86v-1.49h-1.6a1.88,1.88,0,0,0-1.37.45,1.48,1.48,0,0,0-.47,1.1,1.11,1.11,0,0,0,.35.86A1.37,1.37,0,0,0,495.53,379.21Z" transform="translate(0 -2.69)"/><path d="M507,379.13a1.53,1.53,0,0,0,1.63-1.63h2.59l0,.05a3.31,3.31,0,0,1-1.19,2.69,4.44,4.44,0,0,1-3,1.07,4.52,4.52,0,0,1-3.62-1.49,5.73,5.73,0,0,1-1.28-3.84v-.29a5.72,5.72,0,0,1,1.28-3.83,4.44,4.44,0,0,1,3.6-1.51,4.38,4.38,0,0,1,3.12,1.11,3.7,3.7,0,0,1,1.14,2.93l0,.06h-2.59a2.09,2.09,0,0,0-.44-1.36,1.47,1.47,0,0,0-1.21-.55,1.63,1.63,0,0,0-1.56.89,4.83,4.83,0,0,0-.47,2.26V376a4.83,4.83,0,0,0,.47,2.28A1.65,1.65,0,0,0,507,379.13Z" transform="translate(0 -2.69)"/><path d="M516.5,376.69h-.73v4.42h-2.85V365.88h2.85v8.64h.64l2.53-4h3.3l-3.44,4.82,3.91,5.75h-3.28Z" transform="translate(0 -2.69)"/><path d="M529.85,381.11a4.89,4.89,0,0,1-.27-.76,4.57,4.57,0,0,1-.16-.82,4,4,0,0,1-1.17,1.28,2.88,2.88,0,0,1-1.71.5,3.57,3.57,0,0,1-2.56-.85,3.07,3.07,0,0,1-.9-2.33,2.81,2.81,0,0,1,1.19-2.41,6,6,0,0,1,3.5-.85h1.6V374a1.67,1.67,0,0,0-.4-1.18,1.58,1.58,0,0,0-1.19-.42,1.56,1.56,0,0,0-1.07.33,1.21,1.21,0,0,0-.38.93h-2.74l0-.06a2.68,2.68,0,0,1,1.16-2.31,5.07,5.07,0,0,1,3.23-1,4.76,4.76,0,0,1,3.08.95,3.34,3.34,0,0,1,1.18,2.75v4.36a8.83,8.83,0,0,0,.11,1.4,7.62,7.62,0,0,0,.36,1.3Zm-2.61-1.9a2.43,2.43,0,0,0,1.33-.38,1.92,1.92,0,0,0,.8-.86v-1.49h-1.6a1.91,1.91,0,0,0-1.38.45,1.51,1.51,0,0,0-.46,1.1,1.11,1.11,0,0,0,.35.86A1.37,1.37,0,0,0,527.24,379.21Z" transform="translate(0 -2.69)"/><path d="M533.92,375.91a6.86,6.86,0,0,1,1.08-4,3.53,3.53,0,0,1,3-1.53,3,3,0,0,1,1.56.4,3.47,3.47,0,0,1,1.15,1.14l.23-1.35h2.45v10.52a3.93,3.93,0,0,1-1.35,3.19,5.7,5.7,0,0,1-3.76,1.13,7.56,7.56,0,0,1-1.7-.22,8.35,8.35,0,0,1-1.66-.6l.48-2.13a6.76,6.76,0,0,0,1.35.47,6.6,6.6,0,0,0,1.51.16,2.55,2.55,0,0,0,1.73-.49,1.94,1.94,0,0,0,.55-1.52v-1a3.12,3.12,0,0,1-1.11.91,3.19,3.19,0,0,1-1.45.31,3.59,3.59,0,0,1-3-1.42,6.09,6.09,0,0,1-1.08-3.77Zm2.85.21a4.34,4.34,0,0,0,.46,2.18,1.63,1.63,0,0,0,1.52.8,2.34,2.34,0,0,0,1.11-.24,1.82,1.82,0,0,0,.73-.7v-4.58a1.88,1.88,0,0,0-.73-.75,2.1,2.1,0,0,0-1.09-.27,1.59,1.59,0,0,0-1.52.93,5.29,5.29,0,0,0-.48,2.42Z" transform="translate(0 -2.69)"/><path d="M548.6,368h-2.85v-2.13h2.85Zm0,13.1h-2.85V370.54h2.85Z" transform="translate(0 -2.69)"/><path d="M553.54,370.54l.12,1.52a4,4,0,0,1,1.3-1.26,3.38,3.38,0,0,1,1.73-.45,3.13,3.13,0,0,1,2.5,1,4.85,4.85,0,0,1,.9,3.25v6.48h-2.86v-6.47a2.47,2.47,0,0,0-.4-1.6,1.44,1.44,0,0,0-1.18-.48,2.46,2.46,0,0,0-1.12.24,2.24,2.24,0,0,0-.8.66v7.65h-2.85V370.54Z" transform="translate(0 -2.69)"/><path d="M561.78,375.91a6.86,6.86,0,0,1,1.08-4,3.52,3.52,0,0,1,3-1.53,3,3,0,0,1,1.56.4,3.38,3.38,0,0,1,1.15,1.14l.23-1.35h2.45v10.52a3.93,3.93,0,0,1-1.35,3.19,5.7,5.7,0,0,1-3.76,1.13,7.56,7.56,0,0,1-1.7-.22,8.35,8.35,0,0,1-1.66-.6l.48-2.13a6.76,6.76,0,0,0,1.35.47,6.6,6.6,0,0,0,1.51.16,2.55,2.55,0,0,0,1.73-.49,1.94,1.94,0,0,0,.55-1.52v-1a3.12,3.12,0,0,1-1.11.91,3.19,3.19,0,0,1-1.45.31,3.58,3.58,0,0,1-3-1.42,6.09,6.09,0,0,1-1.08-3.77Zm2.85.21a4.34,4.34,0,0,0,.46,2.18,1.63,1.63,0,0,0,1.52.8,2.34,2.34,0,0,0,1.11-.24,1.82,1.82,0,0,0,.73-.7v-4.58a1.88,1.88,0,0,0-.73-.75,2.07,2.07,0,0,0-1.09-.27,1.6,1.6,0,0,0-1.52.93,5.29,5.29,0,0,0-.48,2.42Z" transform="translate(0 -2.69)"/></g></g><rect id="Rectangle_126-3" data-name="Rectangle 126" class="cls-2" x="475" y="388.97" width="76" height="12.15"/></g><g id="Group_546" data-name="Group 546"><rect id="Rectangle_124-5" data-name="Rectangle 124-5" class="cls-2" x="8.65" y="330.31" width="28.5" height="12.15"/><rect id="Rectangle_129" data-name="Rectangle 129" class="cls-2" x="9" y="349.31" width="78" height="12.15"/><g class="cls-6"><path d="M22.71,340a5.6,5.6,0,0,1-1.31,3.93,4.52,4.52,0,0,1-3.48,1.42,4.55,4.55,0,0,1-3.51-1.42A5.56,5.56,0,0,1,13.09,340v-3.91a5.59,5.59,0,0,1,1.32-3.93,4.48,4.48,0,0,1,3.49-1.43,4.51,4.51,0,0,1,3.49,1.43,5.59,5.59,0,0,1,1.32,3.93Zm-2.84-4.21a3.69,3.69,0,0,0-.52-2.12,1.67,1.67,0,0,0-1.45-.75,1.65,1.65,0,0,0-1.45.75,3.69,3.69,0,0,0-.52,2.12v4.49a3.78,3.78,0,0,0,.52,2.14,1.69,1.69,0,0,0,1.47.75,1.64,1.64,0,0,0,1.44-.75,3.78,3.78,0,0,0,.51-2.14Z" transform="translate(0 -2.69)"/><path d="M30.17,330.69a7.38,7.38,0,0,1,1.54.15,8.09,8.09,0,0,1,1.4.44l-.51,2.09a12,12,0,0,0-1.19-.34,6.27,6.27,0,0,0-1.22-.11,2.45,2.45,0,0,0-2,1,4.11,4.11,0,0,0-.77,2.66V337a4,4,0,0,1,1.35-.86,4.7,4.7,0,0,1,1.75-.31,3.44,3.44,0,0,1,2.86,1.3,5.27,5.27,0,0,1,1,3.37A4.72,4.72,0,0,1,33.06,344a4.66,4.66,0,0,1-3.46,1.33A4.68,4.68,0,0,1,26,343.79a5.88,5.88,0,0,1-1.4-4.17v-3a6,6,0,0,1,1.58-4.33A5.4,5.4,0,0,1,30.17,330.69Zm-.6,7.3a3.08,3.08,0,0,0-1.32.25,2,2,0,0,0-.84.69v.76a4.56,4.56,0,0,0,.6,2.54,1.83,1.83,0,0,0,1.59.9,1.64,1.64,0,0,0,1.41-.75,3.21,3.21,0,0,0,.53-1.88,2.92,2.92,0,0,0-.53-1.84A1.75,1.75,0,0,0,29.57,338Z" transform="translate(0 -2.69)"/></g><g class="cls-6"><path d="M14.29,359a6.86,6.86,0,0,1,1.08-4,3.5,3.5,0,0,1,3-1.53,2.9,2.9,0,0,1,1.42.34,3.35,3.35,0,0,1,1.12,1v-5.79h2.86v15.23H21.38l-.25-1.3A3.49,3.49,0,0,1,20,364a3.06,3.06,0,0,1-1.56.38,3.56,3.56,0,0,1-3-1.42,6.09,6.09,0,0,1-1.08-3.77Zm2.84.21a4.33,4.33,0,0,0,.47,2.18,1.63,1.63,0,0,0,1.52.8,2.33,2.33,0,0,0,1.08-.25,2.09,2.09,0,0,0,.75-.73v-4.5a2.34,2.34,0,0,0-.75-.78,2,2,0,0,0-1.06-.28,1.62,1.62,0,0,0-1.53.93,5.29,5.29,0,0,0-.48,2.42Z" transform="translate(0 -2.69)"/><path d="M30.6,364.35a4.73,4.73,0,0,1-3.69-1.45,5.28,5.28,0,0,1-1.33-3.73v-.39a5.8,5.8,0,0,1,1.29-3.89,4.36,4.36,0,0,1,3.54-1.5,4.11,4.11,0,0,1,3.27,1.3,5.15,5.15,0,0,1,1.14,3.51v1.48h-6.3l0,.06a2.77,2.77,0,0,0,.66,1.75,2.19,2.19,0,0,0,1.75.68,5.9,5.9,0,0,0,1.63-.2,7.24,7.24,0,0,0,1.38-.59l.77,1.75A5.12,5.12,0,0,1,33,364,7.44,7.44,0,0,1,30.6,364.35Zm-.19-8.77a1.57,1.57,0,0,0-1.32.6,2.88,2.88,0,0,0-.56,1.56l0,.05H32v-.21a2.41,2.41,0,0,0-.38-1.46A1.39,1.39,0,0,0,30.41,355.58Z" transform="translate(0 -2.69)"/><path d="M39.47,364.15H36.62V348.92h2.85Z" transform="translate(0 -2.69)"/><path d="M44.82,351.05H42v-2.13h2.86Zm0,13.1H42V353.58h2.86Z" transform="translate(0 -2.69)"/><path d="M51,360.21l.18,1h.06l.2-1,1.74-6.63h3l-3.59,10.57H49.82l-3.6-10.57h3Z" transform="translate(0 -2.69)"/><path d="M61.83,364.35a4.73,4.73,0,0,1-3.69-1.45,5.28,5.28,0,0,1-1.33-3.73v-.39a5.8,5.8,0,0,1,1.29-3.89,4.36,4.36,0,0,1,3.54-1.5,4.11,4.11,0,0,1,3.27,1.3,5.15,5.15,0,0,1,1.14,3.51v1.48h-6.3l0,.06a2.77,2.77,0,0,0,.66,1.75,2.19,2.19,0,0,0,1.75.68,5.9,5.9,0,0,0,1.63-.2,7.24,7.24,0,0,0,1.38-.59l.77,1.75a5.12,5.12,0,0,1-1.72.87A7.44,7.44,0,0,1,61.83,364.35Zm-.19-8.77a1.57,1.57,0,0,0-1.32.6,2.88,2.88,0,0,0-.56,1.56l0,.05h3.47v-.21a2.41,2.41,0,0,0-.38-1.46A1.39,1.39,0,0,0,61.64,355.58Z" transform="translate(0 -2.69)"/><path d="M73.26,356l-1,0a1.88,1.88,0,0,0-1,.27,1.62,1.62,0,0,0-.62.74v7.14H67.71V353.58h2.64l.13,1.57a3.37,3.37,0,0,1,1-1.3,2.15,2.15,0,0,1,1.36-.46,2.41,2.41,0,0,1,.4,0l.37.08Z" transform="translate(0 -2.69)"/><path d="M78.73,359.72l.12.58h.06l2-6.72H84l-4.29,12.15a5.64,5.64,0,0,1-1.22,1.91,3.14,3.14,0,0,1-2.32.78,3.55,3.55,0,0,1-.67-.06l-.74-.17.33-2.08.27,0,.27,0a1.51,1.51,0,0,0,1.08-.35,2.4,2.4,0,0,0,.59-.86l.33-.82-3.75-10.56h3.06Z" transform="translate(0 -2.69)"/></g></g><g id="Group_548" data-name="Group 548"><rect id="Rectangle_124-6" data-name="Rectangle 124-6" class="cls-2" x="174.03" y="405.31" width="32.91" height="12.15"/><rect id="Rectangle_128" data-name="Rectangle 128" class="cls-2" x="174" y="424.31" width="106" height="12.15"/><g id="_05_виготовлення" data-name=" 05 виготовлення" class="cls-6"><g class="cls-6"><path d="M189.09,415a5.6,5.6,0,0,1-1.31,3.93,5,5,0,0,1-7,0,5.56,5.56,0,0,1-1.32-3.93v-3.91a5.59,5.59,0,0,1,1.32-3.93,5,5,0,0,1,7,0,5.59,5.59,0,0,1,1.32,3.93Zm-2.84-4.21a3.69,3.69,0,0,0-.52-2.12,1.67,1.67,0,0,0-1.45-.75,1.65,1.65,0,0,0-1.45.75,3.77,3.77,0,0,0-.52,2.12v4.49a3.78,3.78,0,0,0,.52,2.14,1.69,1.69,0,0,0,1.47.75,1.64,1.64,0,0,0,1.44-.75,3.78,3.78,0,0,0,.51-2.14Z" transform="translate(0 -2.69)"/><path d="M191.38,413.84l.82-7.95h7.93v2.29h-5.6l-.39,3.32a3.39,3.39,0,0,1,1-.49,5.36,5.36,0,0,1,1.32-.21,3.76,3.76,0,0,1,3.07,1.23,5.24,5.24,0,0,1,1.09,3.52,5,5,0,0,1-1.19,3.43,4.56,4.56,0,0,1-3.61,1.33,5.42,5.42,0,0,1-3.36-1,3.24,3.24,0,0,1-1.35-2.85l0-.05,2.75-.13a1.83,1.83,0,0,0,.53,1.39,2,2,0,0,0,1.41.5,1.66,1.66,0,0,0,1.48-.67,3.26,3.26,0,0,0,.46-1.89,3.45,3.45,0,0,0-.5-2,1.73,1.73,0,0,0-1.51-.73,2.12,2.12,0,0,0-1.25.31,1.6,1.6,0,0,0-.62.82Z" transform="translate(0 -2.69)"/></g><g class="cls-6"><path d="M189.17,433.12a6.09,6.09,0,0,1-1.08,3.77,3.6,3.6,0,0,1-3,1.42,3.49,3.49,0,0,1-1.48-.3,3.09,3.09,0,0,1-1.1-.91v5.07h-2.84V427.54h2.57l.16,1.25a3.48,3.48,0,0,1,1.13-1.07,3.05,3.05,0,0,1,1.54-.37,3.53,3.53,0,0,1,3.05,1.53,6.86,6.86,0,0,1,1.08,4Zm-2.85-.21a5.15,5.15,0,0,0-.5-2.42,1.62,1.62,0,0,0-1.52-.93,2.11,2.11,0,0,0-1.1.27,1.86,1.86,0,0,0-.72.75v4.63a1.74,1.74,0,0,0,.72.68,2.35,2.35,0,0,0,1.12.24,1.65,1.65,0,0,0,1.52-.81,4.33,4.33,0,0,0,.48-2.2Z" transform="translate(0 -2.69)"/><path d="M196.48,430l-1,0a1.91,1.91,0,0,0-1.05.27,1.62,1.62,0,0,0-.62.74v7.14h-2.84V427.54h2.64l.13,1.57a3.37,3.37,0,0,1,1-1.3,2.16,2.16,0,0,1,1.37-.46,2.38,2.38,0,0,1,.39,0l.37.08Z" transform="translate(0 -2.69)"/><path d="M197.33,432.73a5.64,5.64,0,0,1,1.32-3.87,4.6,4.6,0,0,1,3.66-1.51,4.66,4.66,0,0,1,3.67,1.5,5.67,5.67,0,0,1,1.33,3.88v.2a5.68,5.68,0,0,1-1.33,3.89,5.24,5.24,0,0,1-7.32,0,5.68,5.68,0,0,1-1.33-3.89Zm2.85.2a4.67,4.67,0,0,0,.5,2.32,1.95,1.95,0,0,0,3.26,0,4.61,4.61,0,0,0,.51-2.32v-.2a4.61,4.61,0,0,0-.51-2.3,1.76,1.76,0,0,0-1.63-.89,1.73,1.73,0,0,0-1.62.9,4.57,4.57,0,0,0-.51,2.29Z" transform="translate(0 -2.69)"/><path d="M208.62,432.91a6.86,6.86,0,0,1,1.08-4,3.51,3.51,0,0,1,3-1.53,2.93,2.93,0,0,1,1.43.34,3.42,3.42,0,0,1,1.11,1v-5.79h2.86v15.23h-2.43l-.24-1.3a3.58,3.58,0,0,1-1.18,1.12,3.11,3.11,0,0,1-1.56.38,3.58,3.58,0,0,1-3-1.42,6.09,6.09,0,0,1-1.08-3.77Zm2.85.21a4.34,4.34,0,0,0,.46,2.18,1.65,1.65,0,0,0,1.53.8,2.25,2.25,0,0,0,1.07-.25,2,2,0,0,0,.75-.73v-4.5a2.22,2.22,0,0,0-.74-.78,2.07,2.07,0,0,0-1.06-.28,1.61,1.61,0,0,0-1.53.93,5.29,5.29,0,0,0-.48,2.42Z" transform="translate(0 -2.69)"/><path d="M226.83,436.55a3.73,3.73,0,0,1-1.24,1.31,3.38,3.38,0,0,1-1.75.45,3.19,3.19,0,0,1-2.61-1.13,5.41,5.41,0,0,1-.95-3.51v-6.13h2.85v6.15a3.4,3.4,0,0,0,.37,1.89,1.34,1.34,0,0,0,1.17.52,3,3,0,0,0,1.17-.22,2,2,0,0,0,.8-.65v-7.69h2.85v10.57h-2.36Z" transform="translate(0 -2.69)"/><path d="M236.06,436.13a1.59,1.59,0,0,0,1.18-.45,1.61,1.61,0,0,0,.44-1.18h2.59l0,.05a3.31,3.31,0,0,1-1.19,2.69,4.43,4.43,0,0,1-3,1.07,4.54,4.54,0,0,1-3.63-1.49,5.73,5.73,0,0,1-1.28-3.84v-.29a5.72,5.72,0,0,1,1.28-3.83,4.45,4.45,0,0,1,3.61-1.51,4.37,4.37,0,0,1,3.11,1.11,3.7,3.7,0,0,1,1.14,2.93l0,.06h-2.59a2.09,2.09,0,0,0-.44-1.36,1.46,1.46,0,0,0-1.2-.55,1.63,1.63,0,0,0-1.57.89,4.83,4.83,0,0,0-.47,2.26V433a4.83,4.83,0,0,0,.47,2.28A1.65,1.65,0,0,0,236.06,436.13Z" transform="translate(0 -2.69)"/><path d="M245.37,425v2.58h1.79v2h-1.79v5.39a1.21,1.21,0,0,0,.26.87.9.9,0,0,0,.68.27,2.21,2.21,0,0,0,.39,0,2.16,2.16,0,0,0,.38-.08l.23,2.06a5.38,5.38,0,0,1-.83.22,4.83,4.83,0,0,1-.88.07,3,3,0,0,1-2.27-.81,3.49,3.49,0,0,1-.8-2.56v-5.4H241v-2h1.54V425Z" transform="translate(0 -2.69)"/><path d="M251.91,425h-2.85v-2.13h2.85Zm0,13.1h-2.85V427.54h2.85Z" transform="translate(0 -2.69)"/><path d="M253.82,432.73a5.64,5.64,0,0,1,1.32-3.87,4.57,4.57,0,0,1,3.65-1.51,4.64,4.64,0,0,1,3.67,1.5,5.63,5.63,0,0,1,1.33,3.88v.2a5.68,5.68,0,0,1-1.32,3.89,5.25,5.25,0,0,1-7.33,0,5.68,5.68,0,0,1-1.32-3.89Zm2.84.2a4.56,4.56,0,0,0,.51,2.32,1.74,1.74,0,0,0,1.64.88,1.77,1.77,0,0,0,1.62-.88,4.61,4.61,0,0,0,.51-2.32v-.2a4.5,4.5,0,0,0-.52-2.3,1.92,1.92,0,0,0-3.25,0,4.57,4.57,0,0,0-.51,2.29Z" transform="translate(0 -2.69)"/><path d="M268.15,427.54l.13,1.52a3.9,3.9,0,0,1,1.3-1.26,3.36,3.36,0,0,1,1.73-.45,3.13,3.13,0,0,1,2.5,1,4.85,4.85,0,0,1,.9,3.25v6.48h-2.86v-6.47a2.53,2.53,0,0,0-.4-1.6,1.45,1.45,0,0,0-1.19-.48,2.45,2.45,0,0,0-1.11.24,2.15,2.15,0,0,0-.8.66v7.65H265.5V427.54Z" transform="translate(0 -2.69)"/></g></g></g><g id="Path_1551" data-name="Path 1551"><path class="cls-1" d="M83,336.17v-262l244-34.5,139.5,77,1.5,265-245.5,34Z" transform="translate(0 -2.69)"/><path class="cls-7" d="M222.93,413.59,466,379.93l-1.48-262.08L326.65,41.74,85,75.91V335l137.9,78.58m-.4,2.08L83,336.17v-262l244-34.5,139.5,77,1.5,265Z" transform="translate(0 -2.69)"/></g><g class="cls-6"><path d="M484.45,184.27l.11.59h.06l2-6.72h3.07l-4.29,12.15a5.45,5.45,0,0,1-1.22,1.91,3.14,3.14,0,0,1-2.31.77,3.55,3.55,0,0,1-.67-.06c-.2,0-.45-.09-.75-.16l.34-2.08.27,0,.26,0a1.59,1.59,0,0,0,1.09-.35,2.26,2.26,0,0,0,.58-.86l.33-.82-3.75-10.56h3.07Z" transform="translate(0 -2.69)"/><path d="M490.27,183.32a5.68,5.68,0,0,1,1.32-3.87,5.19,5.19,0,0,1,7.32,0,5.6,5.6,0,0,1,1.33,3.87v.21a5.65,5.65,0,0,1-1.32,3.88,5.23,5.23,0,0,1-7.33,0,5.65,5.65,0,0,1-1.32-3.88Zm2.84.21a4.59,4.59,0,0,0,.51,2.32,1.75,1.75,0,0,0,1.64.87,1.72,1.72,0,0,0,1.61-.88,4.44,4.44,0,0,0,.52-2.31v-.21a4.46,4.46,0,0,0-.52-2.29,1.76,1.76,0,0,0-1.63-.89,1.74,1.74,0,0,0-1.62.89,4.59,4.59,0,0,0-.51,2.29Z" transform="translate(0 -2.69)"/><path d="M508.47,187.14a3.48,3.48,0,0,1-1.24,1.31,3.57,3.57,0,0,1-4.36-.67,5.44,5.44,0,0,1-.94-3.52v-6.12h2.84v6.14a3.4,3.4,0,0,0,.38,1.9,1.35,1.35,0,0,0,1.16.51,2.75,2.75,0,0,0,1.17-.22,1.91,1.91,0,0,0,.81-.65v-7.68h2.85v10.57h-2.37Z" transform="translate(0 -2.69)"/><path d="M518.84,180.59l-1,0a2,2,0,0,0-1,.26,1.7,1.7,0,0,0-.62.75v7.14h-2.84V178.14h2.64l.13,1.56a3.41,3.41,0,0,1,1-1.29,2.16,2.16,0,0,1,1.36-.47,2.35,2.35,0,0,1,.4,0l.36.08Z" transform="translate(0 -2.69)"/><path d="M534.84,183.71a6.12,6.12,0,0,1-1.06,3.78,3.55,3.55,0,0,1-3,1.42,3.24,3.24,0,0,1-1.62-.39,3.35,3.35,0,0,1-1.17-1.14l-.23,1.33h-2.41V173.47h2.84v5.79a3.17,3.17,0,0,1,1.1-1,3,3,0,0,1,1.47-.35,3.49,3.49,0,0,1,3.06,1.52,6.91,6.91,0,0,1,1.06,4Zm-2.84-.2a5.43,5.43,0,0,0-.46-2.45,1.59,1.59,0,0,0-1.55-.9,2.09,2.09,0,0,0-1.12.28,1.91,1.91,0,0,0-.72.79v4.48a1.77,1.77,0,0,0,.73.73,2.3,2.3,0,0,0,1.13.25,1.65,1.65,0,0,0,1.55-.77,4.57,4.57,0,0,0,.44-2.21Z" transform="translate(0 -2.69)"/><path d="M536.16,183.32a5.68,5.68,0,0,1,1.32-3.87,5.19,5.19,0,0,1,7.32,0,5.6,5.6,0,0,1,1.33,3.87v.21a5.61,5.61,0,0,1-1.33,3.88,5.22,5.22,0,0,1-7.32,0,5.65,5.65,0,0,1-1.32-3.88Zm2.84.21a4.59,4.59,0,0,0,.51,2.32,1.75,1.75,0,0,0,1.64.87,1.72,1.72,0,0,0,1.61-.88,4.54,4.54,0,0,0,.52-2.31v-.21a4.57,4.57,0,0,0-.52-2.29,1.76,1.76,0,0,0-1.63-.89,1.74,1.74,0,0,0-1.62.89,4.59,4.59,0,0,0-.51,2.29Z" transform="translate(0 -2.69)"/><path d="M551.65,181.5h.06l1.62-3.36h3.23l-3.19,5.22,3.29,5.35h-3.21l-1.73-3.51L550,188.71h-3.22l3.29-5.35-3.19-5.22h3.2Z" transform="translate(0 -2.69)"/></g><path d="M484.06,390.65v2.59h1.78v2h-1.78v5.39a1.16,1.16,0,0,0,.26.87.87.87,0,0,0,.67.27,2.41,2.41,0,0,0,.4,0,2.37,2.37,0,0,0,.38-.08l.23,2.06a5.69,5.69,0,0,1-.83.22,5,5,0,0,1-.89.07,3,3,0,0,1-2.27-.81,3.55,3.55,0,0,1-.79-2.57v-5.39h-1.55v-2h1.55v-2.59Z" transform="translate(0 -2.69)"/><path d="M492.16,404a4.75,4.75,0,0,1-3.69-1.45,5.32,5.32,0,0,1-1.33-3.73v-.39a5.8,5.8,0,0,1,1.29-3.89,4.37,4.37,0,0,1,3.55-1.5,4.08,4.08,0,0,1,3.26,1.3,5.15,5.15,0,0,1,1.14,3.51v1.48h-6.3l0,.05a2.9,2.9,0,0,0,.66,1.76,2.22,2.22,0,0,0,1.76.68,5.87,5.87,0,0,0,1.62-.2,6.74,6.74,0,0,0,1.38-.59l.77,1.75a5.06,5.06,0,0,1-1.71.87A7.5,7.5,0,0,1,492.16,404Zm-.18-8.77a1.6,1.6,0,0,0-1.33.59,3,3,0,0,0-.56,1.57l0,.05h3.48v-.21a2.48,2.48,0,0,0-.38-1.46A1.41,1.41,0,0,0,492,395.24Z" transform="translate(0 -2.69)"/><path d="M503.73,400.88a1,1,0,0,0-.45-.81,4.67,4.67,0,0,0-1.68-.59,6.63,6.63,0,0,1-2.82-1.12,2.45,2.45,0,0,1-1-2A2.91,2.91,0,0,1,499,394a4.68,4.68,0,0,1,3.06-.95,5,5,0,0,1,3.21.95,2.81,2.81,0,0,1,1.16,2.39l0,.06h-2.75a1.4,1.4,0,0,0-.41-1A1.63,1.63,0,0,0,502,395a1.61,1.61,0,0,0-1.08.34,1.06,1.06,0,0,0-.4.84,1,1,0,0,0,.42.8,4.56,4.56,0,0,0,1.68.55,6.8,6.8,0,0,1,2.9,1.15,2.52,2.52,0,0,1,.95,2.08,2.81,2.81,0,0,1-1.22,2.34,5.33,5.33,0,0,1-3.23.9,4.87,4.87,0,0,1-3.33-1.07,3,3,0,0,1-1.17-2.43l0-.06h2.61a1.45,1.45,0,0,0,.56,1.23,2.31,2.31,0,0,0,1.37.38,1.92,1.92,0,0,0,1.21-.32A1,1,0,0,0,503.73,400.88Z" transform="translate(0 -2.69)"/><path d="M511.73,390.65v2.59h1.79v2h-1.79v5.39a1.21,1.21,0,0,0,.26.87.9.9,0,0,0,.68.27,2.21,2.21,0,0,0,.39,0,2.16,2.16,0,0,0,.38-.08l.24,2.06a5.81,5.81,0,0,1-.84.22,4.83,4.83,0,0,1-.88.07,3,3,0,0,1-2.27-.81,3.55,3.55,0,0,1-.8-2.57v-5.39h-1.54v-2h1.54v-2.59Z" transform="translate(0 -2.69)"/><path d="M518.25,390.71H515.4v-2.14h2.85Zm0,13.1H515.4V393.24h2.85Z" transform="translate(0 -2.69)"/><path d="M523.19,393.24l.12,1.52a3.9,3.9,0,0,1,1.3-1.26,3.38,3.38,0,0,1,1.73-.45,3.13,3.13,0,0,1,2.5,1,4.85,4.85,0,0,1,.9,3.25v6.48h-2.86v-6.47a2.47,2.47,0,0,0-.4-1.6,1.44,1.44,0,0,0-1.18-.48,2.46,2.46,0,0,0-1.12.24,2.15,2.15,0,0,0-.8.66v7.65h-2.85V393.24Z" transform="translate(0 -2.69)"/><path d="M531.43,398.61a6.86,6.86,0,0,1,1.08-4,3.52,3.52,0,0,1,3-1.53,3,3,0,0,1,1.56.4,3.38,3.38,0,0,1,1.15,1.14l.23-1.35H541v10.52A3.93,3.93,0,0,1,539.6,407a5.7,5.7,0,0,1-3.76,1.13,7.56,7.56,0,0,1-1.7-.22,8.35,8.35,0,0,1-1.66-.6l.48-2.13a7.46,7.46,0,0,0,1.35.47,6.6,6.6,0,0,0,1.51.16,2.55,2.55,0,0,0,1.73-.49,1.94,1.94,0,0,0,.55-1.52v-1a3.09,3.09,0,0,1-2.56,1.22,3.58,3.58,0,0,1-3-1.42,6.09,6.09,0,0,1-1.08-3.77Zm2.85.21a4.34,4.34,0,0,0,.46,2.18,1.63,1.63,0,0,0,1.52.8,2.34,2.34,0,0,0,1.11-.24,1.88,1.88,0,0,0,.73-.7v-4.58a2,2,0,0,0-.73-.75,2.1,2.1,0,0,0-1.09-.27,1.59,1.59,0,0,0-1.52.93,5.29,5.29,0,0,0-.48,2.42Z" transform="translate(0 -2.69)"/></g></g></svg>