<svg xmlns="http://www.w3.org/2000/svg" viewBox="0 0 584.68 436.46"><defs><style>.cls-1,.cls-3,.cls-4,.cls-5{fill:none;}.cls-2{fill:#c6d400;}.cls-3{stroke:#c6d400;stroke-width:7px;}.cls-4,.cls-5{stroke:#000;}.cls-5{stroke-width:2px;}.cls-6{isolation:isolate;}.cls-7{fill:#121212;}</style></defs><title>home-img</title><g id="Шар_2" data-name="Шар 2"><g id="Шар_1-2" data-name="Шар 1"><g id="Group_615" data-name="Group 615"><g id="Path_1549" data-name="Path 1549"><path class="cls-1" d="M83,336.17v-262l244-34.5,139.5,77,1.5,265-245.5,34Z" transform="translate(0 -2.69)"/><path class="cls-2" d="M223.93,408.41,461,375.58l-1.44-254.77L325.7,46.93,90,80.25V332.1l133.9,76.31m-1.4,7.26L83,336.17v-262l244-34.5,139.5,77,1.5,265Z" transform="translate(0 -2.69)"/></g><path id="Path_1550" data-name="Path 1550" class="cls-3" d="M92.38,76.3,224,151.17l233.58-35.29" transform="translate(0 -2.69)"/><path id="Path_1552" data-name="Path 1552" class="cls-4" d="M84.1,334.8l243.43-32.13,139.16,78" transform="translate(0 -2.69)"/><path id="Path_1553" data-name="Path 1553" class="cls-4" d="M326.91,40.88l.62,261.29" transform="translate(0 -2.69)"/><path id="Path_1554" data-name="Path 1554" class="cls-5" d="M223.53,154.17l-.48,259.35" transform="translate(0 -2.69)"/><path id="Path_1548" data-name="Path 1548" class="cls-5" d="M3,85.67l405-56,138.34,76.44L144,166.67Z" transform="translate(0 -2.69)"/><path id="Path_1547" data-name="Path 1547" class="cls-5" d="M24.18,41.62,265.8,6.89,523,148.9l-246.7,35.5Z" transform="translate(0 -2.69)"/><g id="Group_543" data-name="Group 543"><rect id="Rectangle_124" data-name="Rectangle 124" class="cls-2" x="3.03" y="37.31" width="30.77" height="12.15"/><rect id="Rectangle_130" data-name="Rectangle 130" class="cls-2" x="3.03" y="56.31" width="76.78" height="12.15"/><g id="_01_дизайн" data-name=" 01 дизайн" class="cls-6"><g class="cls-6"><path d="M20.09,47a5.6,5.6,0,0,1-1.31,3.93,4.52,4.52,0,0,1-3.48,1.42,4.55,4.55,0,0,1-3.51-1.42A5.56,5.56,0,0,1,10.47,47V43.05a5.59,5.59,0,0,1,1.32-3.93,4.48,4.48,0,0,1,3.49-1.43,4.51,4.51,0,0,1,3.49,1.43,5.59,5.59,0,0,1,1.32,3.93Zm-2.84-4.21a3.69,3.69,0,0,0-.52-2.12,1.67,1.67,0,0,0-1.45-.75,1.65,1.65,0,0,0-1.45.75,3.77,3.77,0,0,0-.52,2.12v4.49a3.78,3.78,0,0,0,.52,2.14,1.69,1.69,0,0,0,1.47.75,1.64,1.64,0,0,0,1.44-.75,3.78,3.78,0,0,0,.51-2.14Z" transform="translate(0 -2.69)"/><path d="M28.79,52.11H26V40.37H23V38.19l5.78-.5Z" transform="translate(0 -2.69)"/></g><g class="cls-6"><path d="M10.93,67.92h.3c.52,0,.88-.31,1.09-.93a12,12,0,0,0,.43-3.11L13,59.54h7.83v8.38h1.45v5.69H19.39v-3.5H13.11v3.5H10.26V67.92Zm4.66-4.05a19.94,19.94,0,0,1-.25,2.31,8,8,0,0,1-.5,1.74h3.1v-6.1H15.7Z" transform="translate(0 -2.69)"/><path d="M30.1,59.54h2.84V70.11H30.1V63.66H30L26.6,70.11H23.74V59.54H26.6V66h0Z" transform="translate(0 -2.69)"/><path d="M39.54,63.8a2.13,2.13,0,0,0,1.26-.31,1,1,0,0,0,.43-.85,1.1,1.1,0,0,0-.42-.86,1.93,1.93,0,0,0-1.26-.35,2.22,2.22,0,0,0-1.26.31,1,1,0,0,0-.48.84H35.06l0-.06a2.53,2.53,0,0,1,1.2-2.29,5.45,5.45,0,0,1,3.16-.87,6.4,6.4,0,0,1,3.41.8,2.57,2.57,0,0,1,1.27,2.27,2,2,0,0,1-.48,1.3,3.22,3.22,0,0,1-1.3.94,3,3,0,0,1,1.46,1,2.29,2.29,0,0,1,.51,1.5,2.62,2.62,0,0,1-1.37,2.33,6.5,6.5,0,0,1-3.5.85,6,6,0,0,1-3.23-.84A2.54,2.54,0,0,1,34.88,67l0-.06h2.74a1.11,1.11,0,0,0,.5.91,2.38,2.38,0,0,0,1.42.36,2.18,2.18,0,0,0,1.38-.38,1.15,1.15,0,0,0,.49-.93,1.1,1.1,0,0,0-.49-1,2.48,2.48,0,0,0-1.4-.32H37.82V63.8Z" transform="translate(0 -2.69)"/><path d="M52.45,70.11a4.89,4.89,0,0,1-.27-.76,4.57,4.57,0,0,1-.16-.82,4,4,0,0,1-1.17,1.28,2.88,2.88,0,0,1-1.71.5,3.57,3.57,0,0,1-2.56-.85,3.07,3.07,0,0,1-.9-2.33,2.81,2.81,0,0,1,1.19-2.41,6,6,0,0,1,3.5-.85H52V63a1.67,1.67,0,0,0-.4-1.18,1.58,1.58,0,0,0-1.19-.42,1.56,1.56,0,0,0-1.07.33,1.21,1.21,0,0,0-.38.93H46.19l0-.06a2.68,2.68,0,0,1,1.16-2.31,5.07,5.07,0,0,1,3.23-1,4.76,4.76,0,0,1,3.08.95,3.34,3.34,0,0,1,1.18,2.75v4.36a8.83,8.83,0,0,0,.11,1.4,6.8,6.8,0,0,0,.36,1.3Zm-2.61-1.9a2.43,2.43,0,0,0,1.33-.38A2,2,0,0,0,52,67V65.48h-1.6a1.91,1.91,0,0,0-1.38.45,1.47,1.47,0,0,0-.46,1.1,1.11,1.11,0,0,0,.35.86A1.37,1.37,0,0,0,49.84,68.21Z" transform="translate(0 -2.69)"/><path d="M63.27,59.54h2.84V70.11H63.27V63.66h-.06l-3.45,6.46H56.91V59.54h2.85V66h.06Zm1.55-4.6,0,.06A2.43,2.43,0,0,1,64,57a3.62,3.62,0,0,1-2.45.78A3.68,3.68,0,0,1,59.05,57a2.4,2.4,0,0,1-.86-2l0-.06h2.08a1.21,1.21,0,0,0,.3.85,1.41,1.41,0,0,0,1.84,0,1.21,1.21,0,0,0,.3-.85Z" transform="translate(0 -2.69)"/><path d="M77.38,70.11H74.53V66H71.05v4.1H68.2V59.54h2.85v4.28h3.48V59.54h2.85Z" transform="translate(0 -2.69)"/></g></g></g><g id="Group_544" data-name="Group 544"><rect id="Rectangle_124-2" data-name="Rectangle 124-2" class="cls-2" x="237.03" y="2.31" width="31.65" height="12.15"/><path id="Path_1561" data-name="Path 1561" class="cls-2" d="M237,24H394.32V36.15H237Z" transform="translate(0 -2.69)"/><g id="_02_конструювання" data-name=" 02 конструювання" class="cls-6"><g class="cls-6"><path d="M252.09,12a5.6,5.6,0,0,1-1.31,3.93,5,5,0,0,1-7,0A5.56,5.56,0,0,1,242.47,12V8.05a5.59,5.59,0,0,1,1.32-3.93,5,5,0,0,1,7,0,5.59,5.59,0,0,1,1.32,3.93Zm-2.84-4.21a3.69,3.69,0,0,0-.52-2.12,1.67,1.67,0,0,0-1.45-.75,1.65,1.65,0,0,0-1.45.75,3.77,3.77,0,0,0-.52,2.12v4.49a3.78,3.78,0,0,0,.52,2.14,1.69,1.69,0,0,0,1.47.75,1.64,1.64,0,0,0,1.44-.75,3.78,3.78,0,0,0,.51-2.14Z" transform="translate(0 -2.69)"/><path d="M263.7,17.11h-9.54V15.24l4.41-5a11.8,11.8,0,0,0,1.4-2,3.23,3.23,0,0,0,.41-1.48,2.09,2.09,0,0,0-.44-1.41,1.61,1.61,0,0,0-1.31-.53,1.7,1.7,0,0,0-1.44.68,2.76,2.76,0,0,0-.51,1.71h-2.77l0-.06A4.22,4.22,0,0,1,255.14,4a4.66,4.66,0,0,1,3.49-1.31A4.82,4.82,0,0,1,262,3.8a3.9,3.9,0,0,1,1.21,3,4.22,4.22,0,0,1-.67,2.33,28.11,28.11,0,0,1-2.34,2.92l-2.35,2.81,0,.05h5.81Z" transform="translate(0 -2.69)"/></g><g class="cls-6"><path d="M246.75,31.15h-1.09v4h-2.85V24.54h2.85v4h.85l2.42-4h3.6L249,29.45l3.8,5.66h-3.79Z" transform="translate(0 -2.69)"/><path d="M253.39,29.73a5.64,5.64,0,0,1,1.32-3.87,4.59,4.59,0,0,1,3.65-1.51,4.64,4.64,0,0,1,3.67,1.5,5.63,5.63,0,0,1,1.33,3.88v.2A5.68,5.68,0,0,1,262,33.82a5.25,5.25,0,0,1-7.33,0,5.68,5.68,0,0,1-1.32-3.89Zm2.84.2a4.56,4.56,0,0,0,.51,2.32,1.95,1.95,0,0,0,3.26,0,4.61,4.61,0,0,0,.51-2.32v-.2a4.5,4.5,0,0,0-.52-2.3,1.75,1.75,0,0,0-1.63-.89,1.72,1.72,0,0,0-1.61.9,4.46,4.46,0,0,0-.52,2.29Z" transform="translate(0 -2.69)"/><path d="M274.25,35.11H271.4V31h-3.48v4.1h-2.85V24.54h2.85v4.28h3.48V24.54h2.85Z" transform="translate(0 -2.69)"/><path d="M280.82,33.13a1.53,1.53,0,0,0,1.62-1.63H285l0,.05a3.31,3.31,0,0,1-1.19,2.69,4.46,4.46,0,0,1-3.05,1.07,4.52,4.52,0,0,1-3.62-1.49A5.73,5.73,0,0,1,275.92,30v-.29a5.76,5.76,0,0,1,1.27-3.83,4.46,4.46,0,0,1,3.61-1.51,4.38,4.38,0,0,1,3.12,1.11,3.7,3.7,0,0,1,1.14,2.93l0,.06h-2.6a2.09,2.09,0,0,0-.43-1.36,1.47,1.47,0,0,0-1.21-.55,1.62,1.62,0,0,0-1.56.89,4.83,4.83,0,0,0-.47,2.26V30a4.83,4.83,0,0,0,.47,2.28A1.63,1.63,0,0,0,280.82,33.13Z" transform="translate(0 -2.69)"/><path d="M295.67,26.72h-3.38v8.39h-2.86V26.72H286.1V24.54h9.57Z" transform="translate(0 -2.69)"/><path d="M306.7,30.12a6.09,6.09,0,0,1-1.08,3.77,3.59,3.59,0,0,1-3,1.42,3.45,3.45,0,0,1-1.47-.3A3.12,3.12,0,0,1,300,34.1v5.07h-2.84V24.54h2.57l.16,1.25A3.48,3.48,0,0,1,301,24.72a3.05,3.05,0,0,1,1.54-.37,3.53,3.53,0,0,1,3.05,1.53,6.86,6.86,0,0,1,1.08,4Zm-2.85-.21a5.15,5.15,0,0,0-.5-2.42,1.62,1.62,0,0,0-1.52-.93,2.11,2.11,0,0,0-1.1.27,1.86,1.86,0,0,0-.72.75v4.63a1.74,1.74,0,0,0,.72.68,2.38,2.38,0,0,0,1.12.24,1.65,1.65,0,0,0,1.52-.81,4.33,4.33,0,0,0,.48-2.2Z" transform="translate(0 -2.69)"/><path d="M312.16,30.68l.12.58h.06l2-6.72h3.06l-4.28,12.15a5.64,5.64,0,0,1-1.22,1.91,3.14,3.14,0,0,1-2.32.78,3.55,3.55,0,0,1-.67-.06l-.74-.17.33-2.08.27,0,.27,0a1.51,1.51,0,0,0,1.08-.35,2.4,2.4,0,0,0,.59-.86l.33-.82-3.75-10.56h3.06Z" transform="translate(0 -2.69)"/><path d="M321.62,28.63h1.53a5.14,5.14,0,0,1,1.57-3.11A4.72,4.72,0,0,1,328,24.35a4.64,4.64,0,0,1,3.67,1.5A5.63,5.63,0,0,1,333,29.73v.2a5.68,5.68,0,0,1-1.32,3.89,4.66,4.66,0,0,1-3.66,1.49,4.71,4.71,0,0,1-3.4-1.22,5.12,5.12,0,0,1-1.54-3.26h-1.5v4.28h-2.85V24.54h2.85Zm4.29,1.3a4.56,4.56,0,0,0,.51,2.32,1.74,1.74,0,0,0,1.64.88,1.76,1.76,0,0,0,1.62-.88,4.61,4.61,0,0,0,.51-2.32v-.2a4.5,4.5,0,0,0-.52-2.3,1.92,1.92,0,0,0-3.25,0,4.57,4.57,0,0,0-.51,2.29Z" transform="translate(0 -2.69)"/><path d="M334.94,35.11V24.54h4.42a6.08,6.08,0,0,1,3.28.75,2.42,2.42,0,0,1,1.18,2.2,2,2,0,0,1-.49,1.32,3.12,3.12,0,0,1-1.4.88,3.39,3.39,0,0,1,1.82.88,2.16,2.16,0,0,1,.62,1.52,2.55,2.55,0,0,1-1.12,2.26,5.66,5.66,0,0,1-3.21.76Zm2.86-6.26h1.64a2.2,2.2,0,0,0,1.16-.25.88.88,0,0,0,.38-.77.93.93,0,0,0-.4-.84,2.23,2.23,0,0,0-1.22-.27H337.8Zm0,1.86v2.23H340a1.78,1.78,0,0,0,1.11-.28,1,1,0,0,0,.37-.82,1,1,0,0,0-.35-.84,1.72,1.72,0,0,0-1.13-.29Z" transform="translate(0 -2.69)"/><path d="M352.32,35.11a4.89,4.89,0,0,1-.27-.76,4.57,4.57,0,0,1-.16-.82,4.06,4.06,0,0,1-1.16,1.28,2.93,2.93,0,0,1-1.72.5,3.57,3.57,0,0,1-2.56-.85,3.07,3.07,0,0,1-.9-2.33,2.79,2.79,0,0,1,1.2-2.41,6,6,0,0,1,3.49-.85h1.6V28a1.62,1.62,0,0,0-.4-1.18,1.58,1.58,0,0,0-1.19-.42,1.56,1.56,0,0,0-1.07.33,1.21,1.21,0,0,0-.38.93h-2.74l0-.06a2.68,2.68,0,0,1,1.16-2.31,5.07,5.07,0,0,1,3.23-1,4.76,4.76,0,0,1,3.08.95,3.34,3.34,0,0,1,1.18,2.75v4.36a8.83,8.83,0,0,0,.11,1.4,7.62,7.62,0,0,0,.36,1.3Zm-2.61-1.9a2.43,2.43,0,0,0,1.33-.38,1.92,1.92,0,0,0,.8-.86V30.48h-1.6a1.91,1.91,0,0,0-1.38.45,1.51,1.51,0,0,0-.46,1.1,1.11,1.11,0,0,0,.35.86A1.37,1.37,0,0,0,349.71,33.21Z" transform="translate(0 -2.69)"/><path d="M366,35.11h-2.85V31h-3.48v4.1h-2.85V24.54h2.85v4.28h3.48V24.54H366Z" transform="translate(0 -2.69)"/><path d="M377.25,35.11H374.4V31h-3.48v4.1h-2.85V24.54h2.85v4.28h3.48V24.54h2.85Z" transform="translate(0 -2.69)"/><path d="M388.31,24.54V35.11h-2.83v-3.7h-1.72l-2.07,3.7h-2.88l2.33-4.17a3.46,3.46,0,0,1-1.48-1.18,2.91,2.91,0,0,1-.53-1.71,3.1,3.1,0,0,1,1.23-2.53,5.17,5.17,0,0,1,3.3-1ZM382,28.13a1.29,1.29,0,0,0,.43.95,1.68,1.68,0,0,0,1.21.4h1.86V26.72h-1.82a1.7,1.7,0,0,0-1.24.43A1.35,1.35,0,0,0,382,28.13Z" transform="translate(0 -2.69)"/></g></g></g><g id="Group_545" data-name="Group 545"><rect id="Rectangle_124-3" data-name="Rectangle 124-3" class="cls-2" x="475.03" y="118.31" width="32.65" height="12.15"/><rect id="Rectangle_126" data-name="Rectangle 126" class="cls-2" x="475.03" y="156.31" width="71.65" height="12.15"/><rect id="Rectangle_125" data-name="Rectangle 125" class="cls-2" x="475.03" y="137.31" width="109.65" height="12.15"/><g id="_03_створення_взірця" data-name=" 03 створення взірця" class="cls-6"><g class="cls-6"><path d="M490.09,128a5.6,5.6,0,0,1-1.31,3.93,5,5,0,0,1-7,0,5.56,5.56,0,0,1-1.32-3.93v-3.91a5.59,5.59,0,0,1,1.32-3.93,5,5,0,0,1,7,0,5.59,5.59,0,0,1,1.32,3.93Zm-2.84-4.21a3.69,3.69,0,0,0-.52-2.12,1.67,1.67,0,0,0-1.45-.75,1.65,1.65,0,0,0-1.45.75,3.77,3.77,0,0,0-.52,2.12v4.49a3.78,3.78,0,0,0,.52,2.14,1.69,1.69,0,0,0,1.47.75,1.64,1.64,0,0,0,1.44-.75,3.78,3.78,0,0,0,.51-2.14Z" transform="translate(0 -2.69)"/><path d="M496.67,124.75a2,2,0,0,0,1.51-.53,2.07,2.07,0,0,0,.5-1.48,1.83,1.83,0,0,0-.52-1.33,2,2,0,0,0-1.45-.53,1.87,1.87,0,0,0-1.31.48,1.59,1.59,0,0,0-.53,1.22h-2.76l0-.06a3.24,3.24,0,0,1,1.29-2.75,5.16,5.16,0,0,1,3.33-1.08,5.44,5.44,0,0,1,3.51,1,3.6,3.6,0,0,1,1.3,3,3.11,3.11,0,0,1-.56,1.79,4,4,0,0,1-1.54,1.29,3.63,3.63,0,0,1,1.72,1.27,3.51,3.51,0,0,1,.6,2.07,3.71,3.71,0,0,1-1.41,3.07,6.24,6.24,0,0,1-7,.06,3.33,3.33,0,0,1-1.4-3l0-.06h2.77a1.79,1.79,0,0,0,.56,1.34,2,2,0,0,0,1.45.55,2.25,2.25,0,0,0,1.59-.58,1.92,1.92,0,0,0,.6-1.45,2.21,2.21,0,0,0-.57-1.67,2.3,2.3,0,0,0-1.66-.54H495.1v-2.14Z" transform="translate(0 -2.69)"/></g><g class="cls-6"><path d="M485.05,149.13a1.53,1.53,0,0,0,1.62-1.63h2.6l0,.05a3.31,3.31,0,0,1-1.19,2.69,4.46,4.46,0,0,1-3.05,1.07,4.52,4.52,0,0,1-3.62-1.49,5.73,5.73,0,0,1-1.28-3.84v-.29a5.72,5.72,0,0,1,1.28-3.83,4.43,4.43,0,0,1,3.6-1.51,4.38,4.38,0,0,1,3.12,1.11,3.7,3.7,0,0,1,1.14,2.93l0,.06h-2.6a2.09,2.09,0,0,0-.43-1.36,1.47,1.47,0,0,0-1.21-.55,1.63,1.63,0,0,0-1.56.89,4.83,4.83,0,0,0-.47,2.26V146a4.83,4.83,0,0,0,.47,2.28A1.65,1.65,0,0,0,485.05,149.13Z" transform="translate(0 -2.69)"/><path d="M499.9,142.72h-3.38v8.39h-2.86v-8.39h-3.33v-2.18h9.57Z" transform="translate(0 -2.69)"/><path d="M501.55,151.11V140.54H506a6.12,6.12,0,0,1,3.29.75,2.44,2.44,0,0,1,1.17,2.2,2,2,0,0,1-.49,1.32,3.07,3.07,0,0,1-1.4.88,3.35,3.35,0,0,1,1.82.88,2.16,2.16,0,0,1,.62,1.52,2.55,2.55,0,0,1-1.12,2.26,5.64,5.64,0,0,1-3.21.76Zm2.85-6.26H506a2.21,2.21,0,0,0,1.17-.25.87.87,0,0,0,.37-.77.93.93,0,0,0-.4-.84,2.21,2.21,0,0,0-1.22-.27H504.4Zm0,1.86v2.23h2.24a1.79,1.79,0,0,0,1.12-.28,1,1,0,0,0,.36-.82,1,1,0,0,0-.35-.84,1.7,1.7,0,0,0-1.13-.29Z" transform="translate(0 -2.69)"/><path d="M512.25,145.73a5.64,5.64,0,0,1,1.32-3.87,4.57,4.57,0,0,1,3.65-1.51,4.64,4.64,0,0,1,3.67,1.5,5.63,5.63,0,0,1,1.33,3.88v.2a5.68,5.68,0,0,1-1.32,3.89,5.25,5.25,0,0,1-7.33,0,5.68,5.68,0,0,1-1.32-3.89Zm2.84.2a4.56,4.56,0,0,0,.51,2.32,1.95,1.95,0,0,0,3.26,0,4.61,4.61,0,0,0,.51-2.32v-.2a4.5,4.5,0,0,0-.52-2.3,1.92,1.92,0,0,0-3.25,0,4.57,4.57,0,0,0-.51,2.29Z" transform="translate(0 -2.69)"/><path d="M533.51,146.12a6.09,6.09,0,0,1-1.08,3.77,3.6,3.6,0,0,1-3,1.42,3.49,3.49,0,0,1-1.48-.3,3.09,3.09,0,0,1-1.1-.91v5.07H524V140.54h2.57l.16,1.25a3.48,3.48,0,0,1,1.13-1.07,3.05,3.05,0,0,1,1.54-.37,3.53,3.53,0,0,1,3,1.53,6.86,6.86,0,0,1,1.08,4Zm-2.85-.21a5.15,5.15,0,0,0-.5-2.42,1.62,1.62,0,0,0-1.52-.93,2.11,2.11,0,0,0-1.1.27,1.86,1.86,0,0,0-.72.75v4.63a1.74,1.74,0,0,0,.72.68,2.35,2.35,0,0,0,1.12.24,1.65,1.65,0,0,0,1.52-.81,4.33,4.33,0,0,0,.48-2.2Z" transform="translate(0 -2.69)"/><path d="M539.85,151.31a4.73,4.73,0,0,1-3.69-1.45,5.28,5.28,0,0,1-1.33-3.73v-.39a5.8,5.8,0,0,1,1.29-3.89,4.36,4.36,0,0,1,3.54-1.5,4.11,4.11,0,0,1,3.27,1.3,5.15,5.15,0,0,1,1.14,3.51v1.48h-6.3l0,.06a2.77,2.77,0,0,0,.66,1.75,2.2,2.2,0,0,0,1.75.68,5.9,5.9,0,0,0,1.63-.2,7.24,7.24,0,0,0,1.38-.59l.77,1.75a5.12,5.12,0,0,1-1.72.87A7.44,7.44,0,0,1,539.85,151.31Zm-.19-8.77a1.57,1.57,0,0,0-1.32.6,2.88,2.88,0,0,0-.56,1.56l0,.05h3.47v-.21a2.41,2.41,0,0,0-.38-1.46A1.39,1.39,0,0,0,539.66,142.54Z" transform="translate(0 -2.69)"/><path d="M554.86,151.11H552V147h-3.48v4.1h-2.85V140.54h2.85v4.28H552v-4.28h2.85Z" transform="translate(0 -2.69)"/><path d="M566.15,151.11H563.3V147h-3.48v4.1H557V140.54h2.85v4.28h3.48v-4.28h2.85Z" transform="translate(0 -2.69)"/><path d="M577.21,140.54v10.57h-2.83v-3.7h-1.72l-2.07,3.7h-2.88l2.33-4.17a3.55,3.55,0,0,1-1.49-1.18,3,3,0,0,1-.52-1.71,3.1,3.1,0,0,1,1.23-2.53,5.15,5.15,0,0,1,3.3-1Zm-6.33,3.59a1.26,1.26,0,0,0,.43,1,1.66,1.66,0,0,0,1.2.4h1.87v-2.76h-1.82a1.7,1.7,0,0,0-1.24.43A1.35,1.35,0,0,0,570.88,144.13Z" transform="translate(0 -2.69)"/></g><g class="cls-6"><path d="M480.79,169.11V158.54h4.41a6.12,6.12,0,0,1,3.29.75,2.44,2.44,0,0,1,1.17,2.2,2,2,0,0,1-.49,1.32,3.12,3.12,0,0,1-1.4.88,3.35,3.35,0,0,1,1.82.88,2.16,2.16,0,0,1,.62,1.52,2.55,2.55,0,0,1-1.12,2.26,5.64,5.64,0,0,1-3.21.76Zm2.85-6.26h1.64a2.17,2.17,0,0,0,1.16-.25.85.85,0,0,0,.38-.77.93.93,0,0,0-.4-.84,2.21,2.21,0,0,0-1.22-.27h-1.56Zm0,1.86v2.23h2.24a1.79,1.79,0,0,0,1.12-.28,1,1,0,0,0,.36-.82A1,1,0,0,0,487,165a1.72,1.72,0,0,0-1.13-.29Z" transform="translate(0 -2.69)"/><path d="M496.38,162.8a2.17,2.17,0,0,0,1.27-.31,1,1,0,0,0,.43-.85,1.1,1.1,0,0,0-.42-.86,2,2,0,0,0-1.27-.35,2.26,2.26,0,0,0-1.26.31,1,1,0,0,0-.48.84h-2.74l0-.06a2.53,2.53,0,0,1,1.2-2.29,5.42,5.42,0,0,1,3.15-.87,6.35,6.35,0,0,1,3.41.8,2.55,2.55,0,0,1,1.27,2.27,2.08,2.08,0,0,1-.47,1.3,3.25,3.25,0,0,1-1.31.94,3.06,3.06,0,0,1,1.47,1,2.29,2.29,0,0,1,.51,1.5,2.64,2.64,0,0,1-1.37,2.33,6.52,6.52,0,0,1-3.51.85,6,6,0,0,1-3.23-.84,2.54,2.54,0,0,1-1.29-2.42l0-.06h2.75a1.1,1.1,0,0,0,.49.91,2.42,2.42,0,0,0,1.42.36,2.18,2.18,0,0,0,1.38-.38,1.16,1.16,0,0,0,.5-.93,1.12,1.12,0,0,0-.49-1,2.54,2.54,0,0,0-1.41-.32h-1.72V162.8Z" transform="translate(0 -2.69)"/><path d="M506.06,156h-2.85v-2.13h2.85Zm0,13.1h-2.85V158.54h2.85Z" transform="translate(0 -2.69)"/><path d="M517.93,164.12a6.09,6.09,0,0,1-1.08,3.77,3.58,3.58,0,0,1-3,1.42,3.45,3.45,0,0,1-1.47-.3,3.12,3.12,0,0,1-1.11-.91v5.07H508.4V158.54H511l.17,1.25a3.38,3.38,0,0,1,1.13-1.07,3,3,0,0,1,1.53-.37,3.52,3.52,0,0,1,3.05,1.53,6.86,6.86,0,0,1,1.08,4Zm-2.85-.21a5,5,0,0,0-.5-2.42,1.62,1.62,0,0,0-1.52-.93,2.14,2.14,0,0,0-1.1.27,1.86,1.86,0,0,0-.72.75v4.63a1.74,1.74,0,0,0,.72.68,2.41,2.41,0,0,0,1.12.24,1.64,1.64,0,0,0,1.52-.81,4.33,4.33,0,0,0,.48-2.2Z" transform="translate(0 -2.69)"/><path d="M519.64,158.54h2.85v8.38H526v-8.38h2.85v8.38h1.53v5.69h-2.85v-3.5h-7.88Z" transform="translate(0 -2.69)"/><path d="M540.89,158.54v10.57h-2.83v-3.7h-1.72l-2.07,3.7h-2.88l2.34-4.17a3.43,3.43,0,0,1-1.49-1.18,2.91,2.91,0,0,1-.53-1.71,3.1,3.1,0,0,1,1.23-2.53,5.17,5.17,0,0,1,3.3-1Zm-6.33,3.59a1.29,1.29,0,0,0,.43,1,1.67,1.67,0,0,0,1.21.4h1.86v-2.76h-1.82a1.7,1.7,0,0,0-1.24.43A1.35,1.35,0,0,0,534.56,162.13Z" transform="translate(0 -2.69)"/></g></g></g><g id="Group_547" data-name="Group 547"><rect id="Rectangle_124-4" data-name="Rectangle 124-4" class="cls-2" x="475.03" y="348.31" width="33.21" height="12.15"/><rect id="Rectangle_127" data-name="Rectangle 127" class="cls-2" x="475.03" y="367.31" width="106.9" height="12.15"/><g id="_04_тестуваня" data-name=" 04 тестуваня" class="cls-6"><g class="cls-6"><path d="M490.09,358a5.6,5.6,0,0,1-1.31,3.93,5,5,0,0,1-7,0,5.56,5.56,0,0,1-1.32-3.93v-3.91a5.59,5.59,0,0,1,1.32-3.93,5,5,0,0,1,7,0,5.59,5.59,0,0,1,1.32,3.93Zm-2.84-4.21a3.69,3.69,0,0,0-.52-2.12,1.67,1.67,0,0,0-1.45-.75,1.65,1.65,0,0,0-1.45.75,3.77,3.77,0,0,0-.52,2.12v4.49a3.78,3.78,0,0,0,.52,2.14,1.69,1.69,0,0,0,1.47.75,1.64,1.64,0,0,0,1.44-.75,3.78,3.78,0,0,0,.51-2.14Z" transform="translate(0 -2.69)"/><path d="M500.33,357.82h1.6V360h-1.6v3.09h-2.85V360h-5.8l-.13-1.71,5.9-9.42h2.88Zm-6.19,0h3.34v-5.17h-.06l-.3.64Z" transform="translate(0 -2.69)"/></g><g class="cls-6"><path d="M489.58,372.72h-3.37v8.39h-2.87v-8.39H480v-2.18h9.57Z" transform="translate(0 -2.69)"/><path d="M495.47,381.31a4.75,4.75,0,0,1-3.69-1.45,5.32,5.32,0,0,1-1.33-3.73v-.39a5.8,5.8,0,0,1,1.29-3.89,4.37,4.37,0,0,1,3.55-1.5,4.07,4.07,0,0,1,3.26,1.3,5.15,5.15,0,0,1,1.14,3.51v1.48h-6.3l0,.06a2.89,2.89,0,0,0,.66,1.75,2.22,2.22,0,0,0,1.76.68,5.82,5.82,0,0,0,1.62-.2,6.74,6.74,0,0,0,1.38-.59l.78,1.75a5.22,5.22,0,0,1-1.72.87A7.5,7.5,0,0,1,495.47,381.31Zm-.18-8.77a1.58,1.58,0,0,0-1.33.6,3,3,0,0,0-.56,1.56l0,.05h3.48v-.21a2.48,2.48,0,0,0-.38-1.46A1.41,1.41,0,0,0,495.29,372.54Z" transform="translate(0 -2.69)"/><path d="M505.75,379.13a1.59,1.59,0,0,0,1.18-.45,1.61,1.61,0,0,0,.44-1.18H510l0,.05a3.31,3.31,0,0,1-1.19,2.69,4.43,4.43,0,0,1-3,1.07,4.54,4.54,0,0,1-3.63-1.49,5.73,5.73,0,0,1-1.28-3.84v-.29a5.72,5.72,0,0,1,1.28-3.83,4.45,4.45,0,0,1,3.61-1.51,4.35,4.35,0,0,1,3.11,1.11,3.7,3.7,0,0,1,1.14,2.93l0,.06h-2.59a2.09,2.09,0,0,0-.44-1.36,1.46,1.46,0,0,0-1.2-.55,1.63,1.63,0,0,0-1.57.89,4.83,4.83,0,0,0-.47,2.26V376a4.83,4.83,0,0,0,.47,2.28A1.65,1.65,0,0,0,505.75,379.13Z" transform="translate(0 -2.69)"/><path d="M520.57,372.72h-3.38v8.39h-2.86v-8.39H511v-2.18h9.57Z" transform="translate(0 -2.69)"/><path d="M526,376.68l.12.58h0l2-6.72h3.06L527,382.69a5.64,5.64,0,0,1-1.22,1.91,3.14,3.14,0,0,1-2.32.78,3.55,3.55,0,0,1-.67-.06l-.75-.17.34-2.08.27,0,.26,0a1.54,1.54,0,0,0,1.09-.35,2.26,2.26,0,0,0,.58-.86l.34-.82-3.75-10.56h3.06Z" transform="translate(0 -2.69)"/><path d="M532.5,381.11V370.54h4.42a6.08,6.08,0,0,1,3.28.75,2.42,2.42,0,0,1,1.18,2.2,2,2,0,0,1-.49,1.32,3.1,3.1,0,0,1-1.41.88,3.39,3.39,0,0,1,1.83.88,2.16,2.16,0,0,1,.62,1.52,2.57,2.57,0,0,1-1.12,2.26,5.68,5.68,0,0,1-3.21.76Zm2.85-6.26H537a2.21,2.21,0,0,0,1.17-.25.88.88,0,0,0,.38-.77,1,1,0,0,0-.4-.84,2.23,2.23,0,0,0-1.22-.27h-1.57Zm0,1.86v2.23h2.25a1.78,1.78,0,0,0,1.11-.28,1,1,0,0,0,.36-.82,1,1,0,0,0-.34-.84,1.72,1.72,0,0,0-1.13-.29Z" transform="translate(0 -2.69)"/><path d="M549.85,381.11a6.18,6.18,0,0,1-.26-.76,4.57,4.57,0,0,1-.16-.82,4.1,4.1,0,0,1-1.17,1.28,2.89,2.89,0,0,1-1.72.5,3.54,3.54,0,0,1-2.55-.85,3.07,3.07,0,0,1-.9-2.33,2.81,2.81,0,0,1,1.19-2.41,6,6,0,0,1,3.49-.85h1.61V374a1.67,1.67,0,0,0-.4-1.18,1.59,1.59,0,0,0-1.2-.42,1.55,1.55,0,0,0-1.06.33,1.21,1.21,0,0,0-.38.93H543.6l0-.06a2.68,2.68,0,0,1,1.16-2.31,5.07,5.07,0,0,1,3.23-1,4.76,4.76,0,0,1,3.08.95,3.34,3.34,0,0,1,1.18,2.75v4.36a8.83,8.83,0,0,0,.11,1.4,6.14,6.14,0,0,0,.36,1.3Zm-2.6-1.9a2.43,2.43,0,0,0,1.33-.38,2,2,0,0,0,.8-.86v-1.49h-1.61a1.9,1.9,0,0,0-1.37.45,1.47,1.47,0,0,0-.46,1.1,1.11,1.11,0,0,0,.35.86A1.37,1.37,0,0,0,547.25,379.21Z" transform="translate(0 -2.69)"/><path d="M563.48,381.11h-2.85V377h-3.48v4.1H554.3V370.54h2.85v4.28h3.48v-4.28h2.85Z" transform="translate(0 -2.69)"/><path d="M574.52,370.54v10.57h-2.83v-3.7H570l-2.07,3.7H565l2.33-4.17a3.55,3.55,0,0,1-1.49-1.18,3,3,0,0,1-.52-1.71,3.1,3.1,0,0,1,1.23-2.53,5.17,5.17,0,0,1,3.3-1Zm-6.33,3.59a1.29,1.29,0,0,0,.43.95,1.66,1.66,0,0,0,1.2.4h1.87v-2.76h-1.82a1.7,1.7,0,0,0-1.24.43A1.35,1.35,0,0,0,568.19,374.13Z" transform="translate(0 -2.69)"/></g></g></g><g id="Group_546" data-name="Group 546"><rect id="Rectangle_124-5" data-name="Rectangle 124-5" class="cls-2" x="8.65" y="330.31" width="28.5" height="12.15"/><rect id="Rectangle_129" data-name="Rectangle 129" class="cls-2" x="8.65" y="349.31" width="97.88" height="12.15"/><g id="_06_доставка" data-name=" 06 доставка" class="cls-6"><g class="cls-6"><path d="M22.71,340a5.6,5.6,0,0,1-1.31,3.93,4.52,4.52,0,0,1-3.48,1.42,4.55,4.55,0,0,1-3.51-1.42A5.56,5.56,0,0,1,13.09,340v-3.91a5.59,5.59,0,0,1,1.32-3.93,4.48,4.48,0,0,1,3.49-1.43,4.51,4.51,0,0,1,3.49,1.43,5.59,5.59,0,0,1,1.32,3.93Zm-2.84-4.21a3.69,3.69,0,0,0-.52-2.12,1.67,1.67,0,0,0-1.45-.75,1.65,1.65,0,0,0-1.45.75,3.69,3.69,0,0,0-.52,2.12v4.49a3.78,3.78,0,0,0,.52,2.14,1.69,1.69,0,0,0,1.47.75,1.64,1.64,0,0,0,1.44-.75,3.78,3.78,0,0,0,.51-2.14Z" transform="translate(0 -2.69)"/><path d="M30.17,330.69a7.38,7.38,0,0,1,1.54.15,8.09,8.09,0,0,1,1.4.44l-.51,2.09a12,12,0,0,0-1.19-.34,6.27,6.27,0,0,0-1.22-.11,2.45,2.45,0,0,0-2,1,4.11,4.11,0,0,0-.77,2.66V337a4,4,0,0,1,1.35-.86,4.7,4.7,0,0,1,1.75-.31,3.44,3.44,0,0,1,2.86,1.3,5.27,5.27,0,0,1,1,3.37A4.72,4.72,0,0,1,33.06,344a4.66,4.66,0,0,1-3.46,1.33A4.68,4.68,0,0,1,26,343.79a5.88,5.88,0,0,1-1.4-4.17v-3a6,6,0,0,1,1.58-4.33A5.4,5.4,0,0,1,30.17,330.69Zm-.6,7.3a3.08,3.08,0,0,0-1.32.25,2,2,0,0,0-.84.69v.76a4.56,4.56,0,0,0,.6,2.54,1.83,1.83,0,0,0,1.59.9,1.64,1.64,0,0,0,1.41-.75,3.21,3.21,0,0,0,.53-1.88,2.92,2.92,0,0,0-.53-1.84A1.75,1.75,0,0,0,29.57,338Z" transform="translate(0 -2.69)"/></g><g class="cls-6"><path d="M13.55,360.92h.3c.52,0,.88-.31,1.09-.93a12.43,12.43,0,0,0,.43-3.11l.21-4.33H23.4v8.38h1.46v5.69H22v-3.5H15.73v3.5H12.88v-5.69Zm4.66-4.05a19.94,19.94,0,0,1-.25,2.31,8,8,0,0,1-.5,1.74h3.1v-6.1H18.32Z" transform="translate(0 -2.69)"/><path d="M26.15,357.73a5.64,5.64,0,0,1,1.32-3.87,4.57,4.57,0,0,1,3.65-1.51,4.64,4.64,0,0,1,3.67,1.5,5.63,5.63,0,0,1,1.33,3.88v.2a5.68,5.68,0,0,1-1.32,3.89,4.66,4.66,0,0,1-3.66,1.49,4.67,4.67,0,0,1-3.67-1.49,5.68,5.68,0,0,1-1.32-3.89Zm2.84.2a4.56,4.56,0,0,0,.51,2.32,1.74,1.74,0,0,0,1.64.88,1.77,1.77,0,0,0,1.62-.88,4.61,4.61,0,0,0,.51-2.32v-.2a4.5,4.5,0,0,0-.52-2.3,1.92,1.92,0,0,0-3.25,0,4.57,4.57,0,0,0-.51,2.29Z" transform="translate(0 -2.69)"/><path d="M42.29,361.13a1.53,1.53,0,0,0,1.62-1.63h2.6l0,.05a3.31,3.31,0,0,1-1.19,2.69,4.46,4.46,0,0,1-3.05,1.07,4.52,4.52,0,0,1-3.62-1.49A5.73,5.73,0,0,1,37.39,358v-.29a5.71,5.71,0,0,1,1.27-3.83,4.46,4.46,0,0,1,3.61-1.51,4.38,4.38,0,0,1,3.12,1.11,3.73,3.73,0,0,1,1.14,2.93l0,.06h-2.6a2.09,2.09,0,0,0-.43-1.36,1.47,1.47,0,0,0-1.21-.55,1.64,1.64,0,0,0-1.57.89,5,5,0,0,0-.46,2.26V358a5,5,0,0,0,.46,2.28A1.65,1.65,0,0,0,42.29,361.13Z" transform="translate(0 -2.69)"/><path d="M57.14,354.72H53.76v8.39H50.89v-8.39H47.56v-2.18h9.58Z" transform="translate(0 -2.69)"/><path d="M64.71,363.11c-.1-.24-.19-.5-.27-.76a7.43,7.43,0,0,1-.16-.82,4,4,0,0,1-1.16,1.28,2.89,2.89,0,0,1-1.72.5,3.58,3.58,0,0,1-2.56-.85,3.1,3.1,0,0,1-.89-2.33,2.79,2.79,0,0,1,1.19-2.41,6,6,0,0,1,3.49-.85h1.6V356a1.62,1.62,0,0,0-.4-1.18,1.55,1.55,0,0,0-1.19-.42,1.57,1.57,0,0,0-1.07.33,1.2,1.2,0,0,0-.37.93H58.45l0-.06a2.71,2.71,0,0,1,1.17-2.31,5.05,5.05,0,0,1,3.23-1,4.78,4.78,0,0,1,3.08.95,3.37,3.37,0,0,1,1.18,2.75v4.36a7.79,7.79,0,0,0,.11,1.4,6.14,6.14,0,0,0,.36,1.3Zm-2.6-1.9a2.4,2.4,0,0,0,1.32-.38,1.92,1.92,0,0,0,.8-.86v-1.49h-1.6a1.9,1.9,0,0,0-1.37.45,1.47,1.47,0,0,0-.46,1.1,1.11,1.11,0,0,0,.34.86A1.4,1.4,0,0,0,62.11,361.21Z" transform="translate(0 -2.69)"/><path d="M69.37,363.11V352.54h4.42a6.08,6.08,0,0,1,3.28.75,2.42,2.42,0,0,1,1.18,2.2,2,2,0,0,1-.49,1.32,3.1,3.1,0,0,1-1.41.88,3.42,3.42,0,0,1,1.83.88,2.16,2.16,0,0,1,.62,1.52,2.57,2.57,0,0,1-1.12,2.26,5.68,5.68,0,0,1-3.21.76Zm2.85-6.26h1.64A2.21,2.21,0,0,0,75,356.6a.88.88,0,0,0,.38-.77A1,1,0,0,0,75,355a2.23,2.23,0,0,0-1.22-.27H72.22Zm0,1.86v2.23h2.25a1.78,1.78,0,0,0,1.11-.28,1,1,0,0,0,.36-.82,1,1,0,0,0-.34-.84,1.72,1.72,0,0,0-1.13-.29Z" transform="translate(0 -2.69)"/><path d="M84.63,359.15h-1.1v4H80.68V352.54h2.85v4h.85l2.42-4h3.61l-3.5,4.91,3.81,5.66h-3.8Z" transform="translate(0 -2.69)"/><path d="M98.14,363.11c-.1-.24-.19-.5-.27-.76a5.66,5.66,0,0,1-.16-.82,4,4,0,0,1-1.16,1.28,2.91,2.91,0,0,1-1.72.5,3.57,3.57,0,0,1-2.56-.85,3.07,3.07,0,0,1-.9-2.33,2.79,2.79,0,0,1,1.2-2.41,6,6,0,0,1,3.49-.85h1.6V356a1.62,1.62,0,0,0-.4-1.18,1.55,1.55,0,0,0-1.19-.42,1.57,1.57,0,0,0-1.07.33,1.2,1.2,0,0,0-.37.93H91.88l0-.06A2.71,2.71,0,0,1,93,353.32a5.05,5.05,0,0,1,3.23-1,4.78,4.78,0,0,1,3.08.95,3.36,3.36,0,0,1,1.17,2.75v4.36a7.77,7.77,0,0,0,.12,1.4,6.77,6.77,0,0,0,.35,1.3Zm-2.61-1.9a2.41,2.41,0,0,0,1.33-.38,1.92,1.92,0,0,0,.8-.86v-1.49h-1.6a1.9,1.9,0,0,0-1.37.45,1.47,1.47,0,0,0-.46,1.1,1.11,1.11,0,0,0,.34.86A1.37,1.37,0,0,0,95.53,361.21Z" transform="translate(0 -2.69)"/></g></g></g><g id="Group_548" data-name="Group 548"><rect id="Rectangle_124-6" data-name="Rectangle 124-6" class="cls-2" x="174.03" y="405.31" width="32.91" height="12.15"/><rect id="Rectangle_128" data-name="Rectangle 128" class="cls-2" x="174.03" y="424.31" width="141.34" height="12.15"/><g id="_05_виготовлення" data-name=" 05 виготовлення" class="cls-6"><g class="cls-6"><path d="M189.09,415a5.6,5.6,0,0,1-1.31,3.93,5,5,0,0,1-7,0,5.56,5.56,0,0,1-1.32-3.93v-3.91a5.59,5.59,0,0,1,1.32-3.93,5,5,0,0,1,7,0,5.59,5.59,0,0,1,1.32,3.93Zm-2.84-4.21a3.69,3.69,0,0,0-.52-2.12,1.67,1.67,0,0,0-1.45-.75,1.65,1.65,0,0,0-1.45.75,3.77,3.77,0,0,0-.52,2.12v4.49a3.78,3.78,0,0,0,.52,2.14,1.69,1.69,0,0,0,1.47.75,1.64,1.64,0,0,0,1.44-.75,3.78,3.78,0,0,0,.51-2.14Z" transform="translate(0 -2.69)"/><path d="M191.38,413.84l.82-7.95h7.93v2.29h-5.6l-.39,3.32a3.39,3.39,0,0,1,1-.49,5.36,5.36,0,0,1,1.32-.21,3.76,3.76,0,0,1,3.07,1.23,5.24,5.24,0,0,1,1.09,3.52,5,5,0,0,1-1.19,3.43,4.56,4.56,0,0,1-3.61,1.33,5.42,5.42,0,0,1-3.36-1,3.24,3.24,0,0,1-1.35-2.85l0-.05,2.75-.13a1.83,1.83,0,0,0,.53,1.39,2,2,0,0,0,1.41.5,1.66,1.66,0,0,0,1.48-.67,3.26,3.26,0,0,0,.46-1.89,3.45,3.45,0,0,0-.5-2,1.73,1.73,0,0,0-1.51-.73,2.12,2.12,0,0,0-1.25.31,1.6,1.6,0,0,0-.62.82Z" transform="translate(0 -2.69)"/></g><g class="cls-6"><path d="M179.79,438.11V427.54h4.41a6.12,6.12,0,0,1,3.29.75,2.44,2.44,0,0,1,1.17,2.2,2,2,0,0,1-.49,1.32,3.12,3.12,0,0,1-1.4.88,3.35,3.35,0,0,1,1.82.88,2.16,2.16,0,0,1,.62,1.52,2.55,2.55,0,0,1-1.12,2.26,5.64,5.64,0,0,1-3.21.76Zm2.85-6.26h1.64a2.17,2.17,0,0,0,1.16-.25.85.85,0,0,0,.38-.77.93.93,0,0,0-.4-.84,2.21,2.21,0,0,0-1.22-.27h-1.56Zm0,1.86v2.23h2.24a1.81,1.81,0,0,0,1.12-.28,1,1,0,0,0,.36-.82A1,1,0,0,0,186,434a1.72,1.72,0,0,0-1.13-.29Z" transform="translate(0 -2.69)"/><path d="M197.24,427.54h2.84v10.57h-2.84v-6.45h-.06l-3.45,6.46h-2.85V427.54h2.85V434h.06Z" transform="translate(0 -2.69)"/><path d="M209.39,429.75H205v8.36h-2.85V427.54h7.22Z" transform="translate(0 -2.69)"/><path d="M209.93,432.73a5.64,5.64,0,0,1,1.32-3.87,5.2,5.2,0,0,1,7.32,0,5.63,5.63,0,0,1,1.33,3.88v.2a5.68,5.68,0,0,1-1.32,3.89,5.24,5.24,0,0,1-7.32,0,5.63,5.63,0,0,1-1.33-3.89Zm2.84.2a4.56,4.56,0,0,0,.51,2.32,1.95,1.95,0,0,0,3.26,0,4.61,4.61,0,0,0,.51-2.32v-.2a4.5,4.5,0,0,0-.52-2.3,1.75,1.75,0,0,0-1.63-.89,1.72,1.72,0,0,0-1.61.9,4.46,4.46,0,0,0-.52,2.29Z" transform="translate(0 -2.69)"/><path d="M230.39,429.72H227v8.39h-2.86v-8.39h-3.33v-2.18h9.57Z" transform="translate(0 -2.69)"/><path d="M231.24,432.73a5.64,5.64,0,0,1,1.32-3.87,4.59,4.59,0,0,1,3.65-1.51,4.64,4.64,0,0,1,3.67,1.5,5.63,5.63,0,0,1,1.33,3.88v.2a5.68,5.68,0,0,1-1.32,3.89,5.25,5.25,0,0,1-7.33,0,5.68,5.68,0,0,1-1.32-3.89Zm2.84.2a4.56,4.56,0,0,0,.51,2.32,1.95,1.95,0,0,0,3.26,0,4.61,4.61,0,0,0,.51-2.32v-.2a4.5,4.5,0,0,0-.52-2.3,1.75,1.75,0,0,0-1.63-.89,1.72,1.72,0,0,0-1.61.9,4.46,4.46,0,0,0-.52,2.29Z" transform="translate(0 -2.69)"/><path d="M243.12,438.11V427.54h4.41a6.12,6.12,0,0,1,3.29.75,2.44,2.44,0,0,1,1.17,2.2,2,2,0,0,1-.49,1.32,3.12,3.12,0,0,1-1.4.88,3.35,3.35,0,0,1,1.82.88,2.16,2.16,0,0,1,.62,1.52,2.55,2.55,0,0,1-1.12,2.26,5.64,5.64,0,0,1-3.21.76Zm2.85-6.26h1.64a2.17,2.17,0,0,0,1.16-.25.85.85,0,0,0,.38-.77.93.93,0,0,0-.4-.84,2.21,2.21,0,0,0-1.22-.27H246Zm0,1.86v2.23h2.24a1.81,1.81,0,0,0,1.12-.28,1,1,0,0,0,.36-.82,1,1,0,0,0-.35-.84,1.72,1.72,0,0,0-1.13-.29Z" transform="translate(0 -2.69)"/><path d="M263.41,427.54v10.57h-2.84v-8.36H258V432a8.59,8.59,0,0,1-1,4.6,3.61,3.61,0,0,1-3.27,1.47h-.46l0-2.25h.3a1.2,1.2,0,0,0,1.27-.8,9.91,9.91,0,0,0,.3-3v-4.5Z" transform="translate(0 -2.69)"/><path d="M270.06,438.31a4.73,4.73,0,0,1-3.69-1.45,5.28,5.28,0,0,1-1.33-3.73v-.39a5.8,5.8,0,0,1,1.29-3.89,4.36,4.36,0,0,1,3.54-1.5,4.11,4.11,0,0,1,3.27,1.3,5.15,5.15,0,0,1,1.14,3.51v1.48H268l0,.06a2.83,2.83,0,0,0,.66,1.75,2.2,2.2,0,0,0,1.75.68,5.9,5.9,0,0,0,1.63-.2,7.24,7.24,0,0,0,1.38-.59l.77,1.75a5.12,5.12,0,0,1-1.72.87A7.44,7.44,0,0,1,270.06,438.31Zm-.19-8.77a1.57,1.57,0,0,0-1.32.6,2.88,2.88,0,0,0-.56,1.56l0,.05h3.47v-.21a2.41,2.41,0,0,0-.38-1.46A1.39,1.39,0,0,0,269.87,429.54Z" transform="translate(0 -2.69)"/><path d="M285.07,438.11h-2.85V434h-3.48v4.1h-2.85V427.54h2.85v4.28h3.48v-4.28h2.85Z" transform="translate(0 -2.69)"/><path d="M296.36,438.11h-2.85V434H290v4.1h-2.85V427.54H290v4.28h3.48v-4.28h2.85Z" transform="translate(0 -2.69)"/><path d="M307.42,427.54v10.57h-2.83v-3.7h-1.72l-2.07,3.7h-2.88l2.33-4.17a3.46,3.46,0,0,1-1.48-1.18,2.91,2.91,0,0,1-.53-1.71,3.1,3.1,0,0,1,1.23-2.53,5.17,5.17,0,0,1,3.3-1Zm-6.33,3.59a1.29,1.29,0,0,0,.43.95,1.67,1.67,0,0,0,1.21.4h1.86v-2.76h-1.82a1.7,1.7,0,0,0-1.24.43A1.35,1.35,0,0,0,301.09,431.13Z" transform="translate(0 -2.69)"/></g></g></g><g id="Path_1551" data-name="Path 1551"><path class="cls-1" d="M83,336.17v-262l244-34.5,139.5,77,1.5,265-245.5,34Z" transform="translate(0 -2.69)"/><path class="cls-7" d="M222.93,413.59,466,379.93l-1.48-262.08L326.65,41.74,85,75.91V335l137.9,78.58m-.4,2.08L83,336.17v-262l244-34.5,139.5,77,1.5,265Z" transform="translate(0 -2.69)"/></g></g></g></g></svg>