<svg id="Шар_1" data-name="Шар 1" xmlns="http://www.w3.org/2000/svg" width="255.03" height="149.23" viewBox="0 0 255.03 149.23">
  <title>home-picture</title>
  <g id="Group_606" data-name="Group 606">
    <path id="Path_1597" data-name="Path 1597" d="M254.87,77.4V69.19L96.92,25.93,0,58v8.39l96.92-32.2Z" transform="translate(0 -0.77)" style="fill: #919421"/>
    <path id="Path_1598" data-name="Path 1598" d="M254.87,62.14V43.7L96.92.77,0,32.63V51.08l96.92-32Z" transform="translate(0 -0.77)" style="fill: #736553"/>
    <g id="Group_603" data-name="Group 603">
      <path id="Path_1599" data-name="Path 1599" d="M51.14,88.64l-9.23-2.52-11.9,30,7.55,2,2.18-5.37,12.91,3.52,2,6.54,8.39,2.35Zm-8.21,17.27,3.7-10.06,3.52,12.07Z" transform="translate(0 -0.77)" style="fill: #bbbe09"/>
      <path id="Path_1600" data-name="Path 1600" d="M76,95.51l6.54,11.4,6.87-7.71,9.22,2.52L87,114.8l11.4,20.29-9.56-2.69L82,120.33l-7.21,8.22L65.56,126l11.89-13.41L66.23,92.83Z" transform="translate(0 -0.77)" style="fill: #bbbe09"/>
      <path id="Path_1601" data-name="Path 1601" d="M110.33,138.27l-7.38-2V102.89l7.38,2Z" transform="translate(0 -0.77)" style="fill: #bbbe09"/>
      <path id="Path_1602" data-name="Path 1602" d="M147.22,140.28V115.13l-21.3-5.87s-1,14.25-1.67,18.78-2.52,5.7-6.2,5c-1-.16-1.85-.33-2.86-.5v7l37.9,10.4V142Zm-7.38-2-10.06-2.85,2-16.43,8.22,2.18v17.1Z" transform="translate(0 -0.77)" style="fill: #bbbe09"/>
    </g>
    <path id="Path_1603" data-name="Path 1603" d="M0,58v8.39l158,43.09,96.92-32V69.18l-96.92,32Z" transform="translate(0 -0.77)" style="fill: #bbbe09"/>
    <g id="Group_604" data-name="Group 604">
      <path id="Path_1604" data-name="Path 1604" d="M158,94.17,0,51.08V32.63l158,43.1,96.92-32V62.14Z" transform="translate(0 -0.77)" style="fill: #a08e78"/>
    </g>
    <path id="Path_1605" data-name="Path 1605" d="M28.67,107.42a9.81,9.81,0,0,0-4.36-9.73L24,97.52l.33-.16a8.32,8.32,0,0,0,3.52-2.85,9.22,9.22,0,0,0,.5-6.88,9.54,9.54,0,0,0-4.86-5.87,29.39,29.39,0,0,0-7.38-2.68L0,74.72V82.6c.84.17,15.43,4,15.43,4a5.36,5.36,0,0,1,4,2.18,2.54,2.54,0,0,1-.17,2.69c-.33.67-1.17.84-2.18.84h-.67c-.83-.17-1.85-.34-2.68-.51-2-.5-8.38-2.18-8.38-2.18v6.71s9.55,2.68,10.9,3a4.4,4.4,0,0,1,3,1.85,3.78,3.78,0,0,1,0,3,2.48,2.48,0,0,1-2.18,1h-.33a19.46,19.46,0,0,1-3.19-.67L.17,101.05v7.38s12.74,3.7,17.27,4.86a13.73,13.73,0,0,0,7.88-.16A8.49,8.49,0,0,0,28.67,107.42Z" transform="translate(0 -0.77)" style="fill: #bbbe09"/>
    <g id="Group_605" data-name="Group 605">
      <path id="Path_1606" data-name="Path 1606" d="M173.55,117.81l8,7-5.87,2-5.53-5.54-3.35,3.52v4.87c-1.51.5-2.86,1-4.2,1.34V116.3l4.2-1.34v5.2l7-7.38,6.71-2.18Z" transform="translate(0 -0.77)" style="fill: #736553"/>
      <path id="Path_1607" data-name="Path 1607" d="M196.68,105.24c-.5.16-1,.16-1.51.33-3.52,1.17-11.73,3.86-11.73,3.86v14.75s2.68-.84,4.19-1.34v-5.53c2.68-.84,5-1.68,7.38-2.52a8.87,8.87,0,0,0,2.85-1.34,7.51,7.51,0,0,0,3-3.86C201.55,106.24,200,104.56,196.68,105.24Zm-1.17,5.7c-.34.16-.84.33-1.17.5-2.18.67-6.71,2.18-6.71,2.18v-1.85s5.36-1.85,7.88-2.68c.5-.17,1,0,1,.5a1.48,1.48,0,0,1-1,1.35Z" transform="translate(0 -0.77)" style="fill: #736553"/>
      <path id="Path_1608" data-name="Path 1608" d="M219,112.45l-7-12.58-5.2,1.68-7,17.1,4.53-1.51,1.17-3s5-1.67,7.38-2.52c.33.84.84,1.51,1.17,2.19C215.8,113.45,219,112.45,219,112.45Zm-11.89-2.19,2.35-5.7s1.34,2.86,2,4.2c-1.53.5-4.38,1.51-4.38,1.51Z" transform="translate(0 -0.77)" style="fill: #736553"/>
      <path id="Path_1609" data-name="Path 1609" d="M245,92.83c-2,.67-5.7,1.85-5.7,1.85l-.17-3.7,15.59-5.19v3.7c-1.85.67-3.52,1.17-5.53,1.85,0,3.7-.17,11.23-.17,11.23l-4.19,1.34S245,96.52,245,92.83Z" transform="translate(0 -0.77)" style="fill: #736553"/>
      <path id="Path_1610" data-name="Path 1610" d="M235.08,94.34a14,14,0,0,0-3.7.5,4.11,4.11,0,0,0-.67.17V93.67L226.52,95v1.34s-.84.34-1.34.5a9.79,9.79,0,0,0-3.36,1.85,7.68,7.68,0,0,0-3.18,6.21c0,2.34,1,3.85,3.35,3.85a14,14,0,0,0,3.7-.5,5.68,5.68,0,0,0,.84-.17v1.85l4.19-1.34v-1.85a4.81,4.81,0,0,1,1.18-.33,9.42,9.42,0,0,0,3.35-1.85,7.66,7.66,0,0,0,3.19-6.21C238.44,95.85,237.26,94.51,235.08,94.34Zm-8.55,10.73a9.24,9.24,0,0,1-2,.5c-1.51.17-2.18-.5-2.18-2a3.56,3.56,0,0,1,2.18-3.35,10.41,10.41,0,0,1,2-.84Zm6-2.18c-.5.33-1.34.5-1.85.84V98c.67-.17,1.34-.34,1.85-.5,1.51-.17,2.18.5,2.18,2A3.28,3.28,0,0,1,232.57,102.89Z" transform="translate(0 -0.77)" style="fill: #736553"/>
      <path id="Path_1611" data-name="Path 1611" d="M173,134.24a3.16,3.16,0,0,0-1.17.34l-9.22,3v11.89l3.7-1.17V144l1.51-.51c1.34-.5,2.68-.83,4-1.34a13.08,13.08,0,0,0,2.18-1,4.42,4.42,0,0,0,2.35-3.18,3.36,3.36,0,0,0-.5-3.19A3.55,3.55,0,0,0,173,134.24Zm-.16,3.86a1,1,0,0,1-.67,1h0c-.17.16-.51.16-.68.33h-.16c-1.34.5-5,1.68-5,1.68v-1.51l6-2a.52.52,0,0,1,.49.5Z" transform="translate(0 -0.77)" style="fill: #736553"/>
      <path id="Path_1612" data-name="Path 1612" d="M235.59,113.62a3.08,3.08,0,0,0-1.18.34l-9.22,3V129l3.7-1.17v-4.36l1.51-.5c1.34-.51,2.68-.84,4-1.35a13.82,13.82,0,0,0,2.18-1,4.42,4.42,0,0,0,2.34-3.19,3.28,3.28,0,0,0-.5-3.18C237.93,113.45,236.93,113.29,235.59,113.62Zm-.34,3.7a1,1,0,0,1-.67,1h0c-.17.16-.5.16-.67.33h-.17c-1.34.51-5,1.68-5,1.68v-1.51l6-2a.44.44,0,0,1,.49.39v.1Z" transform="translate(0 -0.77)" style="fill: #736553"/>
      <path id="Path_1613" data-name="Path 1613" d="M182.6,138.61l7.88-2.68v-3l-8,2.69v-1.51l9.22-3v-3l-12.91,4.36v11.89l13.08-4.36v-3l-9.38,3Z" transform="translate(0 -0.77)" style="fill: #736553"/>
      <path id="Path_1614" data-name="Path 1614" d="M216.13,123.85,213,121s-2.68.84-4.19,1.34l-.5.17,5.36,4.69a5.58,5.58,0,0,1-4.19,3.18h-.17v3.53h.34a9.8,9.8,0,0,0,6.2-4c2.52-3.7,8.38-12.74,8.38-12.74l-4.69,1.51Z" transform="translate(0 -0.77)" style="fill: #736553"/>
      <path id="Path_1615" data-name="Path 1615" d="M206.58,131.56a7.05,7.05,0,0,0-1,.34c-1,.33-2.68.84-4.69,1.51-.67.16-1.34.33-1.85.5-.67,0-1.18,0-1.34-.34-.34-.33-.34-.67-.34-1.5a3,3,0,0,1,2-3,15.24,15.24,0,0,1,2.52-1c3-1,5-1.51,5-1.51h.16V123l-.33.17s-3.35.84-7,2.18a10.17,10.17,0,0,0-3.52,1.85,7.23,7.23,0,0,0-3,6.2c0,2.52,1.17,4,3.52,4.19h.5a10.36,10.36,0,0,0,3.18-.5c3.19-1,6.38-2,6.54-2h.17v-3.52Z" transform="translate(0 -0.77)" style="fill: #736553"/>
      <path id="Path_1616" data-name="Path 1616" d="M248.83,117.65c-.67.16-1.34.33-1.85.5-.67,0-1.17,0-1.34-.34-.34-.33-.34-.67-.34-1.51a3,3,0,0,1,2-3,15.24,15.24,0,0,1,2.52-1c3-1,5.2-1.51,5.2-1.51v-3.52s-3.7,1-7.38,2.35a9.84,9.84,0,0,0-3.52,1.85,7.24,7.24,0,0,0-3,6.2c0,2.51,1.17,4,3.52,4.19h.5a10.48,10.48,0,0,0,3.19-.5c3.18-1,6.54-2.18,6.54-2.18v-3.52S250.67,117,248.83,117.65Z" transform="translate(0 -0.77)" style="fill: #736553"/>
    </g>
  </g>
</svg>
