<svg xmlns="http://www.w3.org/2000/svg" width="117.443" height="116.103" viewBox="0 0 117.443 116.103">
  <g id="Безымянный-1" transform="translate(-294.8 -327.897)">
    <g id="Group_189" data-name="Group 189">
      <path id="Path_256" data-name="Path 256" d="M349.4,434.3V408.6H320.9c-6.4,0-6.6,10-5.1,15.7s7.1,10.5,15.2,10.3C339.1,434.5,349.4,434.3,349.4,434.3Z" fill="#fff"/>
      <path id="Path_257" data-name="Path 257" d="M310.9,421.6s-12.9-21.3-14.8-26.3c-2.1-5.4,1-11.4,6.7-20.1-6.8-3.8-8-4.8-8-4.8l25.7.1,12.4,21.8-7.4-4.2s-7.1,11.9-12.4,21.4C309.3,416.3,310.9,421.6,310.9,421.6Z" fill="#fff"/>
    </g>
    <g id="Group_190" data-name="Group 190">
      <path id="Path_258" data-name="Path 258" d="M400.2,364.7,378,377.6s11.1,19.1,14.3,24.6,12,.7,16.1-3.5,5.5-11.4,1.3-18.3S400.2,364.7,400.2,364.7Z" fill="#fff"/>
      <path id="Path_259" data-name="Path 259" d="M408.5,404.4s-11.9,21.8-15.3,26c-3.6,4.5-10.4,4.8-20.7,4.3.1,7.8-.1,9.3-.1,9.3l-12.8-22.3L372.2,400l.1,8.5s13.8.2,24.7,0C404.8,408.4,408.5,404.4,408.5,404.4Z" fill="#fff"/>
    </g>
    <path id="Path_260" data-name="Path 260" d="M361.2,362.1H384l11.5-19.2-5.5,2.8s-5.7-9.6-7.8-12.2a13.775,13.775,0,0,0-16.8-3,18.706,18.706,0,0,0-8.7,9.7,2.007,2.007,0,0,0,.1,1.7l10.4,16.5Z" fill="#fff"/>
    <path id="Path_261" data-name="Path 261" d="M336.2,367.3l-22.3-13.2,11.6-19.5a13.55,13.55,0,0,1,12.1-6.7l25,.5s-5,1.5-10.2,10.8C349.6,344.2,336.2,367.3,336.2,367.3Z" fill="#fff"/>
  </g>
</svg>
