<?xml version="1.0" encoding="utf-8"?>
<!-- Generator: Adobe Illustrator 23.0.1, SVG Export Plug-In . SVG Version: 6.00 Build 0)  -->
<svg version="1.1" id="Capa_1" xmlns="http://www.w3.org/2000/svg" xmlns:xlink="http://www.w3.org/1999/xlink" x="0px" y="0px"
	 viewBox="0 0 385 385" style="enable-background:new 0 0 385 385;" xml:space="preserve">
<style type="text/css">
	.st0{fill:#464646;}
</style>
<g>
	<g id="Arrow_Drop_Left_Square">
		<path class="st0" d="M24.1,385h336.8c13.3,0,24.1-10.8,24.1-24.1V24.1C385,10.8,374.2,0,360.9,0L24.1,0C10.8,0,0,10.8,0,24.1
			l0,336.8C0,374.2,10.8,385,24.1,385z M24.1,24.1h336.8v336.8H24.1V24.1z"/>
		<path id="Arrow_Drop_Down_3_" class="st0" d="M144.3,60.2c-6.8,0-12.2,5.9-12,12.6v239.9c-0.3,10.7,12.9,16.6,20.5,8.9
			l119.1-120.3c4.7-4.7,4.5-12.4,0-17.2l-119-120.2C150.7,61.6,147.7,60.2,144.3,60.2z M246.4,192.7l-90.1,91v-182L246.4,192.7z"/>
	</g>
</g>
</svg>
