<svg xmlns="http://www.w3.org/2000/svg" width="71.57" height="37" viewBox="0 0 71.57 37">
  <g id="око_Монтажная_область_1_Монтажная_область_1" data-name="око_Монтажная область 1_Монтажная область 1" transform="translate(-38.084 -72.016)">
    <g id="Group_550" data-name="Group 550" transform="translate(38.4 72.266)">
      <path id="Path_1557" data-name="Path 1557" d="M66.126,56.29c-19.813.77-31.834,14.525-33.444,16.486L31.4,74.493S45.332,92,66.056,92.766h1.33c15.787,0,28.022-10.935,33.154-16.288.777-.808,1.487-1.639,1.782-1.985h0C101.692,73.793,86.92,55.52,66.126,56.29Zm-32,17.433.14-.14.14.14ZM97.7,75.473C92.871,80.444,81.039,90.666,66.2,90.106c-14.562-.56-25.2-9.763-29.822-14.454-.28-.28-.913-.739-1.193-1.019l.91-.91C40.712,69.032,51.7,59.65,66.266,59.09c13.96-.529,25.064,8.381,30.709,13.877.006,0,.527.482.8.756l.057.353.106.65Z" transform="translate(-31.4 -56.266)" fill="#d7e603" stroke="#d7e603" stroke-miterlimit="10" stroke-width="0.5"/>
    </g>
    <g id="Group_551" data-name="Group 551" transform="translate(60.594 73.69)">
      <path id="Path_1560" data-name="Path 1560" d="M76.4,64.6a7,7,0,1,1-7,7,7.022,7.022,0,0,1,7-7m0-6.3A13.3,13.3,0,1,0,89.7,71.6,13.3,13.3,0,0,0,76.4,58.3Z" transform="translate(-63.1 -58.3)" fill="#d7e603"/>
    </g>
  </g>
</svg>
