<svg id="Group_173" data-name="Group 173" xmlns="http://www.w3.org/2000/svg" width="31.731" height="55.529" viewBox="0 0 31.731 55.529">
  <g id="Path_255" data-name="Path 255" transform="translate(0 43)" fill="#f8f8f8">
    <path d="M 15.86553955078125 -6.480396270751953 C 11.76125907897949 -6.480396270751953 7.902629375457764 -8.078685760498047 5.000459671020508 -10.98085594177246 C 2.098299503326416 -13.88302612304688 0.4999995529651642 -17.74164581298828 0.4999995529651642 -21.8459358215332 L 0.4999995529651642 -42.49999618530273 L 31.2310791015625 -42.49999618530273 L 31.2310791015625 -21.8459358215332 C 31.2310791015625 -17.74164581298828 29.63278007507324 -13.88302612304688 26.73061943054199 -10.98085594177246 C 23.82844924926758 -8.078685760498047 19.96982002258301 -6.480396270751953 15.86553955078125 -6.480396270751953 Z" stroke="none"/>
    <path d="M 1 -41.99999618530273 L 1 -21.8459358215332 C 1 -17.87520599365234 2.546289443969727 -14.14214706420898 5.354009628295898 -11.33441543579102 C 8.161739349365234 -8.526687622070313 11.89480972290039 -6.980396270751953 15.86553955078125 -6.980396270751953 C 19.83626937866211 -6.980396270751953 23.56932830810547 -8.526687622070313 26.37705993652344 -11.33441543579102 C 29.18478965759277 -14.14214706420898 30.7310791015625 -17.87520599365234 30.7310791015625 -21.8459358215332 L 30.7310791015625 -41.99999618530273 L 1 -41.99999618530273 M 0 -42.99999618530273 L 31.7310791015625 -42.99999618530273 C 31.7310791015625 -42.99999618530273 31.7310791015625 -27.35743713378906 31.7310791015625 -21.8459358215332 C 31.7310791015625 -13.08364486694336 24.62783050537109 -5.980396270751953 15.86553955078125 -5.980396270751953 C 7.103239059448242 -5.980396270751953 0 -13.08364486694336 0 -21.8459358215332 C 0 -26.82289695739746 0 -42.99999618530273 0 -42.99999618530273 Z" stroke="none" fill="#707070"/>
  </g>
  <rect id="Rectangle_108" data-name="Rectangle 108" width="2.952" height="20.785" transform="translate(14.39 34.683)" fill="#f8f8f8"/>
  <rect id="Rectangle_109" data-name="Rectangle 109" width="2.952" height="20.785" transform="translate(26.32 52.578) rotate(90)" fill="#f8f8f8"/>
</svg>
